<svg width="285" height="342" viewBox="0 0 285 342" fill="none" xmlns="http://www.w3.org/2000/svg">
<path d="M130.27 156.98C130.27 156.98 146.79 174.28 151.5 184.92C156.21 195.56 166.37 220.48 169.83 234.31C173.29 248.14 179.12 288 179.25 303.06C179.39 318.11 190 331.5 190 331.5" stroke="#008C83" stroke-miterlimit="10"/>
<path d="M79.3896 275.59C79.3896 275.59 95.9697 276 99.7297 276C103.49 276 111.32 272.24 119.87 274.37C128.41 276.51 139.6 274.06 139.6 274.06C139.6 274.06 96.8796 263.59 79.3896 275.59Z" fill="#177E76"/>
<path d="M64.1699 227.69C64.1699 227.69 73.0199 236.74 86.5399 236.59C100.06 236.44 112.98 232.57 118.22 237.45C118.22 237.45 110.39 226.98 94.6299 229.31C78.8599 231.66 64.1699 227.69 64.1699 227.69Z" fill="#177E76"/>
<path d="M116.62 235.78C116.62 235.78 117.54 215.8 121.5 209.95C125.46 204.1 131.42 198.61 132.33 191.9C132.33 191.9 130.65 208.88 125.31 217.32C119.97 225.76 118.9 224.69 118.85 227.69C118.81 230.69 116.62 235.78 116.62 235.78Z" fill="#177E76"/>
<path d="M94.8701 195.07C94.8701 195.07 96.0401 178.61 100.21 173.88C104.38 169.15 112.26 146.73 112.26 146.73C112.26 146.73 108.37 148.26 104.27 153.9C100.16 159.54 95.1801 165.98 95.3301 176.57C95.4801 187.16 94.8701 195.07 94.8701 195.07Z" fill="#177E76"/>
<path d="M95.5695 195.27C95.5695 195.27 84.2295 187.9 75.6895 188.66C67.1495 189.42 59.0095 185.86 56.4195 182.71C53.8295 179.56 50.2695 174.57 50.2695 174.57C50.2695 174.57 62.0695 181.54 69.7995 181.94C77.5195 182.35 89.9795 184.74 95.5695 195.27Z" fill="#177E76"/>
<path d="M78.51 149.24C78.51 149.24 67.32 141.71 65.85 140.95C64.38 140.19 43.02 126.31 42.21 121.22C42.21 121.22 56.04 125.24 60.36 129.46C64.68 133.68 67.89 136.78 69.46 138.82C71.03 140.85 75.56 147.61 78.51 149.24Z" fill="#177E76"/>
<path d="M77.3701 148.24C77.3701 148.24 81.9001 143.05 84.7401 135.22C87.5801 127.39 91.1501 113.41 91.3501 110.61C91.5501 107.81 90.7901 103.8 90.7901 103.8C90.7901 103.8 83.0601 124.04 81.9401 126.22C80.8301 128.41 75.2901 143.46 77.3701 148.24Z" fill="#177E76"/>
<path d="M67.54 115.61C67.54 115.61 74.56 96.7999 77.81 94.3599C81.06 91.9199 90.62 76.5099 95.35 74.7299C95.35 74.7299 90.32 73.7599 85.38 77.5299C80.45 81.2899 73.63 89.1699 72.06 94.4099C70.49 99.6399 67.54 115.61 67.54 115.61Z" fill="#177E76"/>
<path d="M68.0301 115.47L56.8001 108.2C56.8001 108.2 47.3401 105.4 44.3401 102.2C41.3401 98.9999 29.5901 91.7299 26.0901 85.4699C22.5801 79.2199 22.5801 74.6399 22.5801 74.6399C22.5801 74.6399 34.7801 87.5599 40.8301 91.4199C46.8801 95.2799 57.4101 107.23 58.8801 108.2C60.3501 109.17 68.0301 115.47 68.0301 115.47Z" fill="#177E76"/>
<path d="M67.7199 78.96C67.7299 79.18 65.5299 61.11 68.0799 55.72C70.6299 50.33 73.5699 34.47 77.3299 32.03C77.3299 32.03 74.0599 58.83 73.6099 60.81C73.1599 62.79 67.6699 77.13 67.7199 78.96Z" fill="#177E76"/>
<path d="M68.0295 69.1001C68.0295 69.1001 64.1595 107.98 70.4195 128C76.6795 148.02 95.4595 196.34 101.42 207.19C107.38 218.04 141.42 281.77 156.67 298.58C171.92 315.39 185.94 329.33 190 331.5" stroke="#008C83" stroke-miterlimit="10"/>
<path d="M178.25 285.56C178.25 285.56 187.33 275.8 190.45 274.31C193.57 272.82 205.77 262.45 205.77 262.45C205.77 262.45 196.52 264.79 192.01 269.84C187.51 274.88 178.39 281.9 178.25 285.56Z" fill="#177E76"/>
<path d="M173.99 256.95C173.99 256.95 176.49 252.75 181.17 251.26C185.85 249.77 190.33 243.8 191.48 241.16C192.63 238.52 196.84 233.43 196.84 233.43C196.84 233.43 179.98 245.12 179.89 246.92C179.8 248.72 174.06 253.15 173.99 256.95Z" fill="#177E76"/>
<path d="M174.7 256.69C174.7 256.69 169.31 252.86 164.18 251.58C159.05 250.3 150.78 244.61 149.08 241.15C147.38 237.69 149.08 241.15 149.08 241.15C149.08 241.15 157.77 245.79 161.13 246.56C164.49 247.32 167.77 249.66 168.49 250.73C169.22 251.8 174.7 256.69 174.7 256.69Z" fill="#177E76"/>
<path d="M167.2 226.73C167.2 226.73 171.83 218.14 175.13 216.87C178.44 215.6 183.96 202.87 181.3 200.01C178.64 197.15 181.3 200.01 181.3 200.01C181.3 200.01 167.05 222.87 167.2 227.04" fill="#177E76"/>
<path d="M167.78 225.76C167.78 225.76 164.07 223.12 160.81 222.91C157.56 222.71 141.57 213.98 140.59 212.27C139.61 210.56 140.59 212.27 140.59 212.27C140.59 212.27 146.78 210.93 150.74 212.27C154.71 213.61 164.88 221.19 167.78 225.76Z" fill="#177E76"/>
<path d="M157.17 198C157.17 198 161.44 189.66 162.51 186.71C163.58 183.76 164.83 173.08 164.82 170.44C164.8 167.8 164.82 170.44 164.82 170.44C164.82 170.44 159.87 175.98 159.26 180.51C158.64 185.03 159.97 194.64 157.17 198Z" fill="#177E76"/>
<path d="M157.73 198C157.73 198 147.76 188.75 145.63 187.78C143.49 186.81 134.55 182.69 133.78 182.03C133.78 182.03 139.02 189.36 142.78 190.98C146.54 192.6 154.42 197.69 157.73 198Z" fill="#177E76"/>
<path d="M148.24 178.32C148.24 178.32 153.93 169.17 154.49 164.44C155.05 159.71 156.76 144.86 153.03 141.36C149.3 137.85 153.03 141.36 153.03 141.36C153.03 141.36 152.96 155.5 151.23 160.53C149.5 165.56 150.49 171.41 150.49 171.41C150.49 171.41 150.73 175.63 148.24 178.32Z" fill="#177E76"/>
<path d="M117.15 171.86C117.15 171.86 122.94 167.18 125.84 167.79C128.74 168.4 146.49 173.99 148.37 178.93C148.37 178.93 143.49 174.38 138.45 174.57C133.41 174.76 121.17 169.98 117.15 171.86Z" fill="#177E76"/>
<path d="M132.9 159.06C132.9 159.06 128.98 152.44 126.9 150.41C124.82 148.38 113.02 140.75 111.24 140.7C111.24 140.7 111.35 142.7 114.9 145.07C118.45 147.44 129.59 158.51 132.9 159.06Z" fill="#177E76"/>
<path d="M79.3896 275.59C79.3896 275.59 92.9197 265.52 101.97 266.13C111.02 266.74 123.83 270.81 125.77 271.93C127.7 273.05 139.6 274.07 139.6 274.07C139.6 274.07 103.8 268.78 95.8697 270.21C87.9297 271.63 79.3896 275.59 79.3896 275.59Z" fill="#01585C"/>
<path d="M64.1699 227.69C64.1699 227.69 84.4099 227.49 90.1999 226.06C95.9999 224.64 105.66 224.53 114.91 234.3C114.91 234.3 105.15 229.33 98.0299 229.83C90.9099 230.33 71.9999 233.19 64.1699 227.69Z" fill="#01585C"/>
<path d="M118.5 226.47C118.5 226.47 129.08 217.22 130.7 212.23C132.33 207.25 134.36 195.15 132.33 191.89C132.33 191.89 131.11 204.09 127.55 209.18C123.99 214.27 118.5 226.47 118.5 226.47Z" fill="#01585C"/>
<path d="M96.2896 184.46C96.2896 184.46 106.15 178.87 108.49 167.99C110.83 157.11 112.25 146.94 112.25 146.94C112.25 146.94 95.5796 179.38 96.2896 184.46Z" fill="#01585C"/>
<path d="M50.2695 174.57C50.2695 174.57 60.1295 179.04 67.4595 178.84C74.7795 178.64 83.6295 182.5 87.3895 186.67C87.3795 186.67 53.2195 180.37 50.2695 174.57Z" fill="#01585C"/>
<path d="M76.7605 145.29C76.7605 145.29 84.5905 124.54 85.4005 121.6C86.2105 118.65 90.7905 103.8 90.7905 103.8C90.7905 103.8 85.9105 116.11 82.7605 118.65C79.6105 121.19 72.7005 135.83 76.7605 145.29Z" fill="#01585C"/>
<path d="M42.2002 121.22C42.2002 121.22 42.2802 121.4 42.4202 121.72C43.3702 123.88 47.2702 132.37 51.2502 134.84C55.8302 137.69 65.8902 143.18 69.8602 142.98C69.8602 142.98 48.0002 128.24 42.2002 121.22Z" fill="#01585C"/>
<path d="M70.3896 108.8C70.3896 108.8 73.4397 98.94 78.2197 96.7C82.9997 94.46 87.4696 89.38 87.7796 84.6C88.0896 79.82 95.7096 74.74 95.7096 74.74C95.7096 74.74 72.8296 91.31 70.3896 108.8Z" fill="#01585C"/>
<path d="M22.7803 74.6399C22.7803 74.6399 41.9003 96.2999 47.4903 99.8599C53.0803 103.42 58.8803 108.2 58.8803 108.2C58.8803 108.2 46.8803 92.6399 43.9303 89.3899C40.9803 86.1399 33.8603 87.2499 22.7803 74.6399Z" fill="#01585C"/>
<path d="M69.0898 74.13C69.0898 74.13 75.3998 61.52 76.9198 57.05C78.4498 52.58 78.4498 35.08 77.3298 32.03C77.3298 32.03 74.4798 47.69 69.0898 74.13Z" fill="#01585C"/>
<path d="M183.07 278.98C183.07 278.98 200.9 261.83 205.78 262.44C205.78 262.44 188.97 264.75 183.07 278.64" fill="#01585C"/>
<path d="M173.99 255.05C173.99 255.05 187.89 239.12 196.84 233.42C196.83 233.42 175.48 244.41 173.99 255.05Z" fill="#01585C"/>
<path d="M150.09 241.15C150.09 241.15 158.36 255.52 172.12 255.05C172.13 255.05 151.92 245.56 150.09 241.15Z" fill="#01585C"/>
<path d="M167.61 225.76C167.61 225.76 171.95 214.78 177.71 208.68C183.47 202.58 181.3 200 181.3 200C181.3 200 166.05 218.85 167.61 225.76Z" fill="#01585C"/>
<path d="M140.59 212.27C140.59 212.27 150.83 225.02 163.51 223.46C163.51 223.46 143.24 215.53 140.59 212.27Z" fill="#01585C"/>
<path d="M158.37 194.78C158.37 194.78 165.15 186.85 165.96 182.24C166.77 177.63 164.81 170.44 164.81 170.44C164.81 170.44 162.85 190.17 158.37 194.78Z" fill="#01585C"/>
<path d="M133.56 182.03C133.34 181.91 140.07 185.01 144.41 185.69C148.75 186.37 156 193.49 156.68 196.81C156.68 196.81 138.71 184.81 133.56 182.03Z" fill="#01585C"/>
<path d="M154.03 141.36C154.08 141.08 154.03 162.92 151.52 172.61C151.52 172.61 147.45 164.75 149.55 158.03C151.66 151.32 152.95 147.66 154.03 141.36Z" fill="#01585C"/>
<path d="M117.15 171.86C117.15 171.86 124.13 171.05 129.15 174.37C134.17 177.69 143.39 175.66 143.39 175.66C143.39 175.66 127.59 168.34 117.15 171.86Z" fill="#01585C"/>
<path d="M111.24 140.69C111.24 140.69 121.68 156.74 131.71 158.64L111.24 140.69Z" fill="#01585C"/>
<path d="M192.9 282.18C194.32 272.27 195.63 262.34 196.59 252.41C197.06 247.45 197.46 242.48 197.62 237.54C197.68 235.08 197.73 232.61 197.59 230.22C197.56 229 197.41 227.87 197.27 226.69L196.63 223.07C195.66 218.24 194.49 213.39 193.16 208.57C191.87 203.74 190.45 198.93 189.02 194.12C186.16 184.5 183.13 174.91 180.31 165.25C178.89 160.42 177.53 155.57 176.39 150.64C176.13 149.4 175.8 148.18 175.62 146.91C175.41 145.65 175.16 144.41 175.12 143.09C175 141.76 175.04 140.56 175.01 139.31C174.95 138.07 174.92 136.82 174.81 135.57C174.45 130.58 173.81 125.6 173.09 120.63C172.36 115.66 171.54 110.71 170.62 105.76C171.72 110.66 172.73 115.59 173.64 120.53C174.55 125.48 175.38 130.44 175.92 135.46C176.07 136.71 176.16 137.98 176.26 139.24C176.33 140.5 176.34 141.81 176.5 142.98C176.57 144.18 176.87 145.39 177.11 146.6C177.33 147.81 177.7 149.02 178 150.22C179.3 155.04 180.84 159.81 182.43 164.57C185.6 174.09 188.98 183.55 192.21 193.08C193.82 197.85 195.42 202.62 196.91 207.45C198.43 212.26 199.81 217.14 201 222.12L201.81 225.9C202.02 227.21 202.24 228.56 202.32 229.85C202.57 232.47 202.61 235.02 202.65 237.59C202.68 242.7 202.46 247.77 202.17 252.82C201.57 262.93 200.63 272.97 199.57 283C192.833 345.571 183.106 349.583 192.9 282.18Z" fill="#3D8870"/>
<path d="M218.24 155.39C218.24 155.39 210.51 178.78 205.83 184.88C201.15 190.98 192.6 199.38 194.62 206.45" stroke="#008C83" stroke-miterlimit="10"/>
<path d="M200.18 224C200.18 224 213.02 210.85 218.24 209.22C223.46 207.59 224.95 201.08 225.49 197.15C225.49 197.15 220.2 204.61 213.56 207.18C206.92 209.76 200.18 224 200.18 224Z" fill="#3D8870"/>
<path d="M200.18 229.69C200.18 229.69 194.85 221.01 188.21 219.79C181.57 218.57 174.79 208.81 174.79 208.81C174.79 208.81 182.97 213.01 187.49 215.45C192.01 217.89 200.18 229.69 200.18 229.69Z" fill="#3D8870"/>
<path d="M191.59 193.76C191.59 193.76 199.05 184.74 202.44 184.81C205.83 184.88 213.69 184.4 217.63 179.66C217.63 179.66 207.19 177.9 202.85 181.69C198.51 185.48 191.59 193.76 191.59 193.76Z" fill="#3D8870"/>
<path d="M180.74 162.82C180.74 162.82 174.92 157.7 165.02 157.7C155.12 157.7 158.38 152.14 154.85 146.99C154.85 146.99 160.54 150.92 165.56 150.79C170.58 150.66 180.74 162.82 180.74 162.82Z" fill="#3D8870"/>
<path d="M179.25 153.22C179.25 153.22 180.47 145.36 186.17 144.68C191.87 144 194.32 134.78 194.32 134.78C194.32 134.78 181.15 141.69 179.25 153.22Z" fill="#3D8870"/>
<path d="M164.07 99.73C164.07 99.73 173.36 102.98 175.39 99.73C175.39 99.73 175.05 110.37 172.07 110.65C169.09 110.93 164 102.85 164.07 99.73Z" fill="#3D8870"/>
<path d="M214.98 144.61C214.98 144.61 215.45 154.92 217.62 156.14C219.79 157.36 225.35 151.53 226.43 149.43C227.53 147.32 214.98 144.61 214.98 144.61Z" fill="#3D8870"/>
<path d="M272.68 139.22C271.99 138.68 271.15 138.69 270.33 138.54C269.54 138.4 268.76 138.19 268.07 137.78C268.18 135.28 267.43 132.88 266.34 130.64C265.27 128.45 263.96 126.05 262.15 124.38C260.09 122.48 257.86 122.51 255.21 122.54C252.58 122.56 250.54 121.33 248.78 119.44C247.17 117.71 246.18 115.48 244.52 113.8C243.82 113.1 242.94 112.51 241.94 112.36C240.72 112.17 240.15 112.69 239.43 113.53C238.46 114.66 238.43 111.73 238.28 111.1C238.01 109.97 237.37 108.93 236.54 108.13C235.73 107.36 234.73 106.78 233.62 106.62C232.19 106.41 230.72 106.87 229.31 107.03C227.79 107.21 226.21 107.29 224.7 106.96C223.15 106.62 221.92 105.55 220.39 105.22C218.19 104.74 216.03 106.1 213.89 106C213.77 105.87 213.64 105.75 213.49 105.64C212.24 104.68 210.51 104.48 209.07 105.12C207.42 105.86 206.49 107.6 205.02 108.61C203.42 109.71 201.44 110.09 199.54 109.7C199.11 109.61 198.77 109.79 198.55 110.07C198.43 109.99 198.31 109.91 198.2 109.83C197.68 109.47 197.17 109.11 196.65 108.76C196.13 108.4 195.59 108.05 194.98 108.3C194.68 108.16 194.31 108.15 194.03 108.31C193.54 108.6 193.43 109.19 193.67 109.68C194.22 110.79 194.62 111.98 194.87 113.2C194.91 113.81 194.94 114.41 194.93 115.02C194.91 116.69 194.76 118.64 196.38 119.64C196.48 119.83 196.58 120.01 196.71 120.2C197.2 120.92 197.73 121.6 198.26 122.25C198.26 122.9 198.39 123.59 198.71 124.29C203.2 134.04 211.57 145.46 222.19 149.02C227.94 150.94 234.34 150.72 240.32 150.72C245.58 150.73 250.81 150.5 255.97 149.57C257.53 149.59 259.1 149.6 260.64 149.4C262.64 149.14 264.58 148.55 266.53 148.05C269.31 147.33 273.99 146.78 274.41 143.15C274.58 141.78 273.77 140.06 272.68 139.22Z" fill="#EA665E"/>
<path d="M210.001 66.0813C208.711 65.6513 207.151 65.6813 205.801 66.1613C205.681 66.1613 205.561 66.1413 205.431 66.1513C202.281 66.4113 201.971 65.8013 201.221 64.7013C202.471 62.6813 200.941 59.5913 198.731 58.6813C197.261 58.0713 196.651 58.0013 195.071 58.1413C194.501 58.1913 193.971 58.3313 193.491 58.5413C193.221 58.1013 193.031 57.5213 192.851 56.9413C192.861 56.7813 192.871 56.6113 192.881 56.4513C192.941 54.8213 192.401 53.2613 191.241 52.1013C190.291 51.1413 188.981 50.3913 187.641 50.2113C186.801 50.1013 186.021 50.1813 185.261 50.3913C185.151 50.3713 185.051 50.3413 184.941 50.3313C183.171 50.0813 181.691 50.9213 180.051 50.8513C178.121 50.7713 178.211 49.9013 176.371 49.0513C175.311 48.5713 174.461 48.4713 173.291 48.6513C170.101 49.1413 169.881 51.7313 168.491 53.6613C168.381 53.6513 168.281 53.6213 168.171 53.6213C165.141 53.5213 163.211 49.1613 160.341 48.2613C157.621 47.4113 154.781 48.7513 152.801 50.6013C152.311 51.0613 151.891 51.5313 151.531 52.0213C151.091 52.3413 150.701 52.7913 150.401 53.4013C149.271 55.6413 148.241 57.6713 147.671 59.9313C147.461 60.3613 147.261 60.7913 147.071 61.2013C147.061 61.2313 147.051 61.2613 147.041 61.2913C146.771 61.2113 146.481 61.1513 146.191 61.1213C142.651 60.6513 139.431 61.2213 136.811 63.8113C134.741 65.8613 132.961 68.5713 132.421 71.4713C131.591 72.8213 131.121 74.1013 131.651 74.7413C128.351 70.7813 122.711 76.4713 125.991 80.4013C126.001 80.4113 126.001 80.4113 126.011 80.4213C126.091 81.1113 126.421 81.8013 127.111 82.4013C134.571 88.9613 143.191 96.8313 153.061 99.2813C153.261 99.3313 153.441 99.3513 153.631 99.3613C156.991 101.291 159.851 102.781 164.411 102.811C169.801 102.841 176.011 102.021 180.981 99.8813C185.661 97.8613 189.941 94.4113 194.061 91.4413C197.171 89.1913 199.331 86.4813 201.411 83.4813C204.081 80.9213 206.541 78.1913 208.621 75.2713C210.471 73.9213 212.201 72.3213 212.461 70.3913C212.711 68.4313 211.991 66.7413 210.001 66.0813Z" fill="#EA665E"/>
</svg>
