<svg width="285" height="342" viewBox="0 0 285 342" fill="none" xmlns="http://www.w3.org/2000/svg">
<path d="M153.79 156.98C153.79 156.98 137.27 174.28 132.56 184.92C127.85 195.56 117.69 220.48 114.23 234.31C110.77 248.14 104.94 288 104.81 303.06C104.67 318.11 94.0596 331.5 94.0596 331.5" stroke="#008C83" stroke-miterlimit="10"/>
<path d="M204.67 275.59C204.67 275.59 188.09 276 184.33 276C180.57 276 172.74 272.24 164.19 274.37C155.65 276.51 144.46 274.06 144.46 274.06C144.46 274.06 187.18 263.59 204.67 275.59Z" fill="#177E76"/>
<path d="M219.89 227.69C219.89 227.69 211.04 236.74 197.52 236.59C184 236.44 171.08 232.57 165.84 237.45C165.84 237.45 173.67 226.98 189.43 229.31C205.2 231.66 219.89 227.69 219.89 227.69Z" fill="#177E76"/>
<path d="M167.439 235.78C167.439 235.78 166.519 215.8 162.559 209.95C158.599 204.1 152.639 198.61 151.729 191.9C151.729 191.9 153.409 208.88 158.749 217.32C164.089 225.76 165.159 224.69 165.209 227.69C165.249 230.69 167.439 235.78 167.439 235.78Z" fill="#177E76"/>
<path d="M189.189 195.07C189.189 195.07 188.019 178.61 183.849 173.88C179.679 169.15 171.799 146.73 171.799 146.73C171.799 146.73 175.689 148.26 179.789 153.9C183.899 159.54 188.879 165.98 188.729 176.57C188.579 187.16 189.189 195.07 189.189 195.07Z" fill="#177E76"/>
<path d="M188.49 195.27C188.49 195.27 199.83 187.9 208.37 188.66C216.91 189.42 225.05 185.86 227.64 182.71C230.23 179.56 233.79 174.57 233.79 174.57C233.79 174.57 221.99 181.54 214.26 181.94C206.54 182.35 194.08 184.74 188.49 195.27Z" fill="#177E76"/>
<path d="M205.55 149.24C205.55 149.24 216.74 141.71 218.21 140.95C219.68 140.19 241.04 126.31 241.85 121.22C241.85 121.22 228.02 125.24 223.7 129.46C219.38 133.68 216.17 136.78 214.6 138.82C213.03 140.85 208.5 147.61 205.55 149.24Z" fill="#177E76"/>
<path d="M206.689 148.24C206.689 148.24 202.159 143.05 199.319 135.22C196.479 127.39 192.909 113.41 192.709 110.61C192.509 107.81 193.269 103.8 193.269 103.8C193.269 103.8 200.999 124.04 202.119 126.22C203.229 128.41 208.769 143.46 206.689 148.24Z" fill="#177E76"/>
<path d="M216.52 115.61C216.52 115.61 209.5 96.7999 206.25 94.3599C203 91.9199 193.44 76.5099 188.71 74.7299C188.71 74.7299 193.74 73.7599 198.68 77.5299C203.61 81.2899 210.43 89.1699 212 94.4099C213.57 99.6399 216.52 115.61 216.52 115.61Z" fill="#177E76"/>
<path d="M216.029 115.47L227.259 108.2C227.259 108.2 236.719 105.4 239.719 102.2C242.719 98.9999 254.469 91.7299 257.969 85.4699C261.479 79.2199 261.479 74.6399 261.479 74.6399C261.479 74.6399 249.279 87.5599 243.229 91.4199C237.179 95.2799 226.649 107.23 225.179 108.2C223.709 109.17 216.029 115.47 216.029 115.47Z" fill="#177E76"/>
<path d="M216.34 78.96C216.33 79.18 218.53 61.11 215.98 55.72C213.43 50.33 210.49 34.47 206.73 32.03C206.73 32.03 210 58.83 210.45 60.81C210.9 62.79 216.39 77.13 216.34 78.96Z" fill="#177E76"/>
<path d="M216.03 69.1001C216.03 69.1001 219.9 107.98 213.64 128C207.38 148.02 188.6 196.34 182.64 207.19C176.68 218.04 142.64 281.77 127.39 298.58C112.14 315.39 98.1196 329.33 94.0596 331.5" stroke="#008C83" stroke-miterlimit="10"/>
<path d="M105.81 285.56C105.81 285.56 96.7296 275.8 93.6096 274.31C90.4896 272.82 78.2896 262.45 78.2896 262.45C78.2896 262.45 87.5396 264.79 92.0496 269.84C96.5496 274.88 105.67 281.9 105.81 285.56Z" fill="#177E76"/>
<path d="M110.069 256.95C110.069 256.95 107.569 252.75 102.889 251.26C98.2093 249.77 93.7293 243.8 92.5793 241.16C91.4293 238.52 87.2193 233.43 87.2193 233.43C87.2193 233.43 104.079 245.12 104.169 246.92C104.259 248.72 109.999 253.15 110.069 256.95Z" fill="#177E76"/>
<path d="M109.36 256.69C109.36 256.69 114.75 252.86 119.88 251.58C125.01 250.3 133.28 244.61 134.98 241.15C136.68 237.69 134.98 241.15 134.98 241.15C134.98 241.15 126.29 245.79 122.93 246.56C119.57 247.32 116.29 249.66 115.57 250.73C114.84 251.8 109.36 256.69 109.36 256.69Z" fill="#177E76"/>
<path d="M116.859 226.73C116.859 226.73 112.229 218.14 108.929 216.87C105.619 215.6 100.099 202.87 102.759 200.01C105.419 197.15 102.759 200.01 102.759 200.01C102.759 200.01 117.009 222.87 116.859 227.04" fill="#177E76"/>
<path d="M116.28 225.76C116.28 225.76 119.99 223.12 123.25 222.91C126.5 222.71 142.49 213.98 143.47 212.27C144.45 210.56 143.47 212.27 143.47 212.27C143.47 212.27 137.28 210.93 133.32 212.27C129.35 213.61 119.18 221.19 116.28 225.76Z" fill="#177E76"/>
<path d="M126.89 198C126.89 198 122.62 189.66 121.55 186.71C120.48 183.76 119.23 173.08 119.24 170.44C119.26 167.8 119.24 170.44 119.24 170.44C119.24 170.44 124.19 175.98 124.8 180.51C125.42 185.03 124.09 194.64 126.89 198Z" fill="#177E76"/>
<path d="M126.329 198C126.329 198 136.299 188.75 138.429 187.78C140.569 186.81 149.509 182.69 150.279 182.03C150.279 182.03 145.039 189.36 141.279 190.98C137.519 192.6 129.639 197.69 126.329 198Z" fill="#177E76"/>
<path d="M135.819 178.32C135.819 178.32 130.129 169.17 129.569 164.44C129.009 159.71 127.299 144.86 131.029 141.36C134.759 137.85 131.029 141.36 131.029 141.36C131.029 141.36 131.099 155.5 132.829 160.53C134.559 165.56 133.569 171.41 133.569 171.41C133.569 171.41 133.329 175.63 135.819 178.32Z" fill="#177E76"/>
<path d="M166.909 171.86C166.909 171.86 161.119 167.18 158.219 167.79C155.319 168.4 137.569 173.99 135.689 178.93C135.689 178.93 140.569 174.38 145.609 174.57C150.649 174.76 162.889 169.98 166.909 171.86Z" fill="#177E76"/>
<path d="M151.159 159.06C151.159 159.06 155.079 152.44 157.159 150.41C159.239 148.38 171.039 140.75 172.819 140.7C172.819 140.7 172.709 142.7 169.159 145.07C165.609 147.44 154.469 158.51 151.159 159.06Z" fill="#177E76"/>
<path d="M204.67 275.59C204.67 275.59 191.14 265.52 182.09 266.13C173.04 266.74 160.23 270.81 158.29 271.93C156.36 273.05 144.46 274.07 144.46 274.07C144.46 274.07 180.26 268.78 188.19 270.21C196.13 271.63 204.67 275.59 204.67 275.59Z" fill="#01585C"/>
<path d="M219.89 227.69C219.89 227.69 199.65 227.49 193.86 226.06C188.06 224.64 178.4 224.53 169.15 234.3C169.15 234.3 178.91 229.33 186.03 229.83C193.15 230.33 212.06 233.19 219.89 227.69Z" fill="#01585C"/>
<path d="M165.56 226.47C165.56 226.47 154.98 217.22 153.36 212.23C151.73 207.25 149.7 195.15 151.73 191.89C151.73 191.89 152.95 204.09 156.51 209.18C160.07 214.27 165.56 226.47 165.56 226.47Z" fill="#01585C"/>
<path d="M187.77 184.46C187.77 184.46 177.91 178.87 175.57 167.99C173.23 157.11 171.81 146.94 171.81 146.94C171.81 146.94 188.48 179.38 187.77 184.46Z" fill="#01585C"/>
<path d="M233.79 174.57C233.79 174.57 223.93 179.04 216.6 178.84C209.28 178.64 200.43 182.5 196.67 186.67C196.68 186.67 230.84 180.37 233.79 174.57Z" fill="#01585C"/>
<path d="M207.299 145.29C207.299 145.29 199.469 124.54 198.659 121.6C197.849 118.65 193.269 103.8 193.269 103.8C193.269 103.8 198.149 116.11 201.299 118.65C204.449 121.19 211.359 135.83 207.299 145.29Z" fill="#01585C"/>
<path d="M241.859 121.22C241.859 121.22 241.779 121.4 241.639 121.72C240.689 123.88 236.789 132.37 232.809 134.84C228.229 137.69 218.169 143.18 214.199 142.98C214.199 142.98 236.059 128.24 241.859 121.22Z" fill="#01585C"/>
<path d="M213.67 108.8C213.67 108.8 210.62 98.94 205.84 96.7C201.06 94.46 196.59 89.38 196.28 84.6C195.97 79.82 188.35 74.74 188.35 74.74C188.35 74.74 211.23 91.31 213.67 108.8Z" fill="#01585C"/>
<path d="M261.279 74.6399C261.279 74.6399 242.159 96.2999 236.569 99.8599C230.979 103.42 225.179 108.2 225.179 108.2C225.179 108.2 237.179 92.6399 240.129 89.3899C243.079 86.1399 250.199 87.2499 261.279 74.6399Z" fill="#01585C"/>
<path d="M214.97 74.13C214.97 74.13 208.66 61.52 207.14 57.05C205.61 52.58 205.61 35.08 206.73 32.03C206.73 32.03 209.58 47.69 214.97 74.13Z" fill="#01585C"/>
<path d="M100.989 278.98C100.989 278.98 83.1593 261.83 78.2793 262.44C78.2793 262.44 95.0893 264.75 100.989 278.64" fill="#01585C"/>
<path d="M110.069 255.05C110.069 255.05 96.1693 239.12 87.2193 233.42C87.2293 233.42 108.579 244.41 110.069 255.05Z" fill="#01585C"/>
<path d="M133.97 241.15C133.97 241.15 125.7 255.52 111.94 255.05C111.93 255.05 132.14 245.56 133.97 241.15Z" fill="#01585C"/>
<path d="M116.45 225.76C116.45 225.76 112.11 214.78 106.35 208.68C100.59 202.58 102.76 200 102.76 200C102.76 200 118.01 218.85 116.45 225.76Z" fill="#01585C"/>
<path d="M143.47 212.27C143.47 212.27 133.23 225.02 120.55 223.46C120.55 223.46 140.82 215.53 143.47 212.27Z" fill="#01585C"/>
<path d="M125.689 194.78C125.689 194.78 118.909 186.85 118.099 182.24C117.289 177.63 119.249 170.44 119.249 170.44C119.249 170.44 121.209 190.17 125.689 194.78Z" fill="#01585C"/>
<path d="M150.5 182.03C150.72 181.91 143.99 185.01 139.65 185.69C135.31 186.37 128.06 193.49 127.38 196.81C127.38 196.81 145.35 184.81 150.5 182.03Z" fill="#01585C"/>
<path d="M130.029 141.36C129.979 141.08 130.029 162.92 132.539 172.61C132.539 172.61 136.609 164.75 134.509 158.03C132.399 151.32 131.109 147.66 130.029 141.36Z" fill="#01585C"/>
<path d="M166.909 171.86C166.909 171.86 159.929 171.05 154.909 174.37C149.889 177.69 140.669 175.66 140.669 175.66C140.669 175.66 156.469 168.34 166.909 171.86Z" fill="#01585C"/>
<path d="M172.819 140.69C172.819 140.69 162.379 156.74 152.349 158.64L172.819 140.69Z" fill="#01585C"/>
<path d="M91.1595 282.18C89.7395 272.27 88.4295 262.34 87.4695 252.41C86.9995 247.45 86.5995 242.48 86.4395 237.54C86.3795 235.08 86.3295 232.61 86.4695 230.22C86.4995 229 86.6494 227.87 86.7894 226.69L87.4294 223.07C88.3994 218.24 89.5694 213.39 90.8994 208.57C92.1894 203.74 93.6094 198.93 95.0394 194.12C97.8994 184.5 100.929 174.91 103.749 165.25C105.169 160.42 106.529 155.57 107.669 150.64C107.929 149.4 108.259 148.18 108.439 146.91C108.649 145.65 108.899 144.41 108.939 143.09C109.059 141.76 109.019 140.56 109.049 139.31C109.109 138.07 109.139 136.82 109.249 135.57C109.609 130.58 110.249 125.6 110.969 120.63C111.699 115.66 112.519 110.71 113.439 105.76C112.339 110.66 111.329 115.59 110.419 120.53C109.509 125.48 108.679 130.44 108.139 135.46C107.989 136.71 107.899 137.98 107.799 139.24C107.729 140.5 107.719 141.81 107.559 142.98C107.489 144.18 107.189 145.39 106.949 146.6C106.729 147.81 106.359 149.02 106.059 150.22C104.759 155.04 103.219 159.81 101.629 164.57C98.4595 174.09 95.0794 183.55 91.8494 193.08C90.2394 197.85 88.6394 202.62 87.1494 207.45C85.6294 212.26 84.2494 217.14 83.0594 222.12L82.2495 225.9C82.0395 227.21 81.8194 228.56 81.7394 229.85C81.4894 232.47 81.4495 235.02 81.4095 237.59C81.3795 242.7 81.5995 247.77 81.8895 252.82C82.4895 262.93 83.4294 272.97 84.4894 283C91.2269 345.571 100.954 349.583 91.1595 282.18Z" fill="#3D8870"/>
<path d="M65.8196 155.39C65.8196 155.39 73.5496 178.78 78.2296 184.88C82.9096 190.98 91.4596 199.38 89.4396 206.45" stroke="#008C83" stroke-miterlimit="10"/>
<path d="M83.8799 224C83.8799 224 71.0399 210.85 65.8199 209.22C60.5999 207.59 59.1099 201.08 58.5699 197.15C58.5699 197.15 63.8599 204.61 70.4999 207.18C77.1399 209.76 83.8799 224 83.8799 224Z" fill="#3D8870"/>
<path d="M83.8795 229.69C83.8795 229.69 89.2095 221.01 95.8495 219.79C102.49 218.57 109.27 208.81 109.27 208.81C109.27 208.81 101.09 213.01 96.5695 215.45C92.0495 217.89 83.8795 229.69 83.8795 229.69Z" fill="#3D8870"/>
<path d="M92.4697 193.76C92.4697 193.76 85.0097 184.74 81.6197 184.81C78.2297 184.88 70.3697 184.4 66.4297 179.66C66.4297 179.66 76.8697 177.9 81.2097 181.69C85.5497 185.48 92.4697 193.76 92.4697 193.76Z" fill="#3D8870"/>
<path d="M103.32 162.82C103.32 162.82 109.14 157.7 119.04 157.7C128.94 157.7 125.68 152.14 129.21 146.99C129.21 146.99 123.52 150.92 118.5 150.79C113.48 150.66 103.32 162.82 103.32 162.82Z" fill="#3D8870"/>
<path d="M104.81 153.22C104.81 153.22 103.59 145.36 97.8896 144.68C92.1896 144 89.7396 134.78 89.7396 134.78C89.7396 134.78 102.91 141.69 104.81 153.22Z" fill="#3D8870"/>
<path d="M119.99 99.73C119.99 99.73 110.7 102.98 108.67 99.73C108.67 99.73 109.01 110.37 111.99 110.65C114.97 110.93 120.06 102.85 119.99 99.73Z" fill="#3D8870"/>
<path d="M69.0791 144.61C69.0791 144.61 68.6091 154.92 66.4391 156.14C64.2691 157.36 58.7091 151.53 57.6291 149.43C56.5291 147.32 69.0791 144.61 69.0791 144.61Z" fill="#3D8870"/>
<path d="M11.3795 139.22C12.0695 138.68 12.9095 138.69 13.7295 138.54C14.5195 138.4 15.2995 138.19 15.9895 137.78C15.8795 135.28 16.6295 132.88 17.7195 130.64C18.7895 128.45 20.0995 126.05 21.9095 124.38C23.9695 122.48 26.1995 122.51 28.8495 122.54C31.4795 122.56 33.5195 121.33 35.2795 119.44C36.8895 117.71 37.8795 115.48 39.5395 113.8C40.2395 113.1 41.1195 112.51 42.1195 112.36C43.3395 112.17 43.9095 112.69 44.6295 113.53C45.5995 114.66 45.6295 111.73 45.7795 111.1C46.0495 109.97 46.6895 108.93 47.5195 108.13C48.3295 107.36 49.3295 106.78 50.4395 106.62C51.8695 106.41 53.3395 106.87 54.7495 107.03C56.2695 107.21 57.8495 107.29 59.3595 106.96C60.9095 106.62 62.1395 105.55 63.6695 105.22C65.8695 104.74 68.0295 106.1 70.1695 106C70.2895 105.87 70.4195 105.75 70.5695 105.64C71.8195 104.68 73.5495 104.48 74.9895 105.12C76.6395 105.86 77.5695 107.6 79.0395 108.61C80.6395 109.71 82.6195 110.09 84.5195 109.7C84.9495 109.61 85.2895 109.79 85.5095 110.07C85.6295 109.99 85.7495 109.91 85.8595 109.83C86.3795 109.47 86.8895 109.11 87.4095 108.76C87.9295 108.4 88.4695 108.05 89.0795 108.3C89.3795 108.16 89.7495 108.15 90.0295 108.31C90.5195 108.6 90.6295 109.19 90.3895 109.68C89.8395 110.79 89.4395 111.98 89.1895 113.2C89.1495 113.81 89.1195 114.41 89.1295 115.02C89.1495 116.69 89.2995 118.64 87.6795 119.64C87.5795 119.83 87.4795 120.01 87.3495 120.2C86.8595 120.92 86.3295 121.6 85.7995 122.25C85.7995 122.9 85.6695 123.59 85.3495 124.29C80.8595 134.04 72.4895 145.46 61.8695 149.02C56.1195 150.94 49.7195 150.72 43.7395 150.72C38.4795 150.73 33.2495 150.5 28.0895 149.57C26.5295 149.59 24.9595 149.6 23.4195 149.4C21.4195 149.14 19.4795 148.55 17.5295 148.05C14.7495 147.33 10.0695 146.78 9.64947 143.15C9.47947 141.78 10.2895 140.06 11.3795 139.22Z" fill="#EA665E"/>
<path d="M74.0589 66.0813C75.3489 65.6513 76.9089 65.6813 78.2589 66.1613C78.3789 66.1613 78.4989 66.1413 78.6289 66.1513C81.7789 66.4113 82.0889 65.8013 82.8389 64.7013C81.5889 62.6813 83.1189 59.5913 85.3289 58.6813C86.7989 58.0713 87.4089 58.0013 88.9889 58.1413C89.5589 58.1913 90.0889 58.3313 90.5689 58.5413C90.8389 58.1013 91.0289 57.5213 91.2089 56.9413C91.1989 56.7813 91.1889 56.6113 91.1789 56.4513C91.1189 54.8213 91.6589 53.2613 92.8189 52.1013C93.7689 51.1413 95.0789 50.3913 96.4189 50.2113C97.2589 50.1013 98.0389 50.1813 98.7989 50.3913C98.9089 50.3713 99.0089 50.3413 99.1189 50.3313C100.889 50.0813 102.369 50.9213 104.009 50.8513C105.939 50.7713 105.849 49.9013 107.689 49.0513C108.749 48.5713 109.599 48.4713 110.769 48.6513C113.959 49.1413 114.179 51.7313 115.569 53.6613C115.679 53.6513 115.779 53.6213 115.889 53.6213C118.919 53.5213 120.849 49.1613 123.719 48.2613C126.439 47.4113 129.279 48.7513 131.259 50.6013C131.749 51.0613 132.169 51.5313 132.529 52.0213C132.969 52.3413 133.359 52.7913 133.659 53.4013C134.789 55.6413 135.819 57.6713 136.389 59.9313C136.599 60.3613 136.799 60.7913 136.989 61.2013C136.999 61.2313 137.009 61.2613 137.019 61.2913C137.289 61.2113 137.579 61.1513 137.869 61.1213C141.409 60.6513 144.629 61.2213 147.249 63.8113C149.319 65.8613 151.099 68.5713 151.639 71.4713C152.469 72.8213 152.939 74.1013 152.409 74.7413C155.709 70.7813 161.349 76.4713 158.069 80.4013C158.059 80.4113 158.059 80.4113 158.049 80.4213C157.969 81.1113 157.639 81.8013 156.949 82.4013C149.489 88.9613 140.869 96.8313 130.999 99.2813C130.799 99.3313 130.619 99.3513 130.429 99.3613C127.069 101.291 124.209 102.781 119.649 102.811C114.259 102.841 108.049 102.021 103.079 99.8813C98.3989 97.8613 94.1189 94.4113 89.9989 91.4413C86.8889 89.1913 84.7289 86.4813 82.6489 83.4813C79.9789 80.9213 77.5189 78.1913 75.4389 75.2713C73.5889 73.9213 71.8589 72.3213 71.5989 70.3913C71.3489 68.4313 72.0689 66.7413 74.0589 66.0813Z" fill="#EA665E"/>
</svg>
