<svg width="66" height="64" viewBox="0 0 66 64" fill="none" xmlns="http://www.w3.org/2000/svg">
<path d="M29.5078 0H36.4923L33.6838 33.6194H32.1875L29.5078 0Z" fill="#000333"/>
<path d="M4.97949 15.0957L9.33943 9.66125L34.0151 32.802L33.0769 33.967L4.97949 15.0957Z" fill="#000333"/>
<path d="M1.55143 43.5735L0 36.8032L33.5795 32.0458L33.9106 33.4974L1.55143 43.5735Z" fill="#000333"/>
<path d="M21.8062 64.0001L15.5146 60.987L32.7091 31.9055L34.052 32.552L21.8062 64.0001Z" fill="#000333"/>
<path d="M50.4856 60.9868L44.1941 63.9999L32.0586 32.497L33.4077 31.8566L50.4856 60.9868Z" fill="#000333"/>
<path d="M66.0001 36.8033L64.4425 43.5735L32.1201 33.3755L32.4512 31.9238L66.0001 36.8033Z" fill="#000333"/>
<path d="M56.6604 9.66125L61.0142 15.0957L32.8432 33.8694L31.9111 32.7105L56.6604 9.66125Z" fill="#000333"/>
</svg>
