<?xml version="1.0" encoding="utf-8"?>
<!-- Generator: Adobe Illustrator 25.2.1, SVG Export Plug-In . SVG Version: 6.00 Build 0)  -->
<svg version="1.1" id="Layer_1" xmlns="http://www.w3.org/2000/svg" xmlns:xlink="http://www.w3.org/1999/xlink" x="0px" y="0px"
	 viewBox="0 0 800 600" style="enable-background:new 0 0 800 600;" xml:space="preserve">
<style type="text/css">
	.st0{fill:none;stroke:#26522C;stroke-width:4;stroke-linecap:round;stroke-miterlimit:10;}
	.st1{fill:none;stroke:#55873E;stroke-width:4;stroke-linecap:round;stroke-miterlimit:10;}
	.st2{fill:none;stroke:#55873E;stroke-width:3;stroke-linecap:round;stroke-miterlimit:10;}
	.st3{fill:#CDD8D5;}
	.st4{fill:#FFFFFF;stroke:#FFFFFF;stroke-miterlimit:10;}
</style>
<path class="st0" d="M396.92,581.23c0,0,56.95-90.03,93.56-104.14c28.16-10.85,78.46-31,103.27-41.7
	c7.44-3.21,12.59-5.57,14.15-6.57c6.78-4.34,39.32-34.98,69.97-27.39c30.64,7.59,49.63-17.08,49.63-17.08"/>
<path class="st0" d="M593.75,435.4c0,0,31.51,11.06,53.48,0.75"/>
<path class="st0" d="M672.37,400.47c0,0,16.35-11.24,28.82-9.34c12.47,1.9,32.27-8.14,32.27-8.14"/>
<path class="st0" d="M634.58,410.3c0,0,22.13-61.74,60.37-53.34"/>
<path class="st0" d="M589.19,435.4c0,0,51.8-70.3,50.98-88.74"/>
<path class="st0" d="M475.5,485.96c0,0,27.45-62.83,35.86-68.8"/>
<path class="st0" d="M473.76,487.32c0,0,11.84-135.51,8.04-150.15"/>
<path class="st0" d="M482.55,372.96c0,0,28.81-42.31,34.77-41.76"/>
<path class="st0" d="M512.99,391.73c0,0-6.24-43.45-40.41-58.91"/>
<path class="st0" d="M512.99,384.35c0,0,12.75-31.19,11.66-42.03"/>
<path class="st0" d="M517.33,387.88c0,0,13.56-34.99,28.2-35.8"/>
<path class="st0" d="M515.97,263.67c0,0,14.1,16.54,13.29,54.78"/>
<path class="st0" d="M529.3,322.79c0,0,7.56-38.24,26.81-39.32"/>
<path class="st0" d="M537.67,321.16c0,0,12.75-15.46,29.29-15.73"/>
<path class="st0" d="M309.06,397.37c0,0,53.42-121.22,64.27-137.76"/>
<path class="st0" d="M360.04,313.3c0,0,57.76-52.07,90.03-44.47"/>
<path class="st0" d="M418.08,274.34c0,0,16.81-81.45,54.5-96.09"/>
<path class="st0" d="M439.23,179.88c0,0-1.36,30.72,0,34.34"/>
<path class="st0" d="M395.3,183.4c0,0,35.8,16.27,43.93,32.81"/>
<line class="st0" x1="412.11" y1="238.18" x2="414.02" y2="276.19"/>
<path class="st0" d="M341.19,206.18c0,0-19.39,47.19,7.73,99.25"/>
<path class="st0" d="M304.45,206.18c0,0,13.56,23.59,28.47,32"/>
<path class="st1" d="M346.48,554.93c0,0-15.46-124.2,103.59-178.71"/>
<path class="st2" d="M373.33,405.23c0,0-20.88,35.8-11.93,54.78"/>
<path class="st2" d="M384.99,402.52c0,0-3.53,23.56-1.9,25.34"/>
<path class="st2" d="M406.69,393.03c0,0,2.71,46.37,5.42,51.53"/>
<line class="st2" x1="427.3" y1="410.3" x2="409.11" y2="425.03"/>
<line class="st2" x1="424.85" y1="423.94" x2="421.87" y2="439.4"/>
<path class="st2" d="M345.82,518.59c0,0,82.01-81.9,96.66-82.44"/>
<path class="st2" d="M290.08,444.55c0,0,17.36,52.34,54.51,68.88"/>
<path class="st2" d="M409.4,333.91c0,0,8.14,14.64,10.03,32.54"/>
<path class="st2" d="M431.91,340.69c0,0-17.07,5.42-13.83,26.85"/>
<path class="st2" d="M395.3,305.44c0,0-30.92,59.93-21.97,82.44"/>
<path class="st2" d="M353.53,337.16c0,0,8.41,25.49,20.88,32.81"/>
<path class="st2" d="M368.99,342.32c0,0,0.54,7.05,8.68,11.25"/>
<path class="st2" d="M377.67,305.44c0,0-5.97,26.03,3.25,36.88"/>
<path class="st2" d="M185.94,331.19c0,0,113.08,105.5,118.51,219.12"/>
<path class="st2" d="M298.21,422.86c0,0-17.36,21.42-14.64,40.95"/>
<path class="st2" d="M153.94,347.94c0,0,41.76-1.02,61.29,17.15"/>
<path class="st1" d="M124.38,185.84c0,0,60.75,72.41,87.05,93.56c26.31,21.15,55.32,57.22,53.15,116.61"/>
<path class="st1" d="M242.35,359.94c0,0,17.98,10.49,21.6,14.33"/>
<path class="st1" d="M300.92,300.55c0,0-25.22,34.83-24.14,47.38"/>
<path class="st1" d="M276.75,249.03c0,0-30.88,47.65-25.46,75.22"/>
<path class="st1" d="M237.74,206.18c0,0,6.64,99.02,10.85,112.27"/>
<polyline class="st1" points="230.69,145.98 263.95,169.84 276.75,238.18 "/>
<path class="st1" d="M260.79,145.98c0,0-0.21,4.69,2.92,21.97"/>
<path class="st1" d="M276.75,121.84c0,0,5.19,24.95,17.12,43.12"/>
<path class="st1" d="M315.02,133.23"/>
<path class="st1" d="M345.82,133.23c0,0-21.04,11.66-21.04,26.58"/>
<path class="st1" d="M315.02,134.86c0,0,4.88,4.88,3.66,22.1"/>
<path class="st1" d="M234.48,94.45c0,0,7.59,10.03,14.1,23.86"/>
<path class="st1" d="M82.62,206.18c0,0,43.96,7.53,59.93,13.29"/>
<path class="st3" d="M121.96,150.93c-4.56-4.22-8.08-7.8-14.69-6.58c-5.42,1-10.33,4.33-12.8,9.32c-2.7,5.47-1.4,9.88,0.33,15.3
	c1.84,5.74,4.07,10.2,11.07,8.61c2.36-0.53,3.57-2.12,3.86-3.92c4.77-1.8,8.01-8.01,8.15-13.26c0.54-0.1,1.09-0.19,1.64-0.27
	C123.67,159.52,124.75,153.52,121.96,150.93z"/>
<path class="st3" d="M214.13,195.59c-3.22-3.99-8.36-6.82-12.49-9.79c-3.61-2.6-7.78-5.35-12.16-2.74
	c-1.94,1.16-2.99,2.42-5.16,3.24c-2.11,0.79-4.09,1.45-5.88,2.85c-4.1,3.19-5.16,8.13-5.49,13.02c-2.84,3.38-4.71,7.41-4.91,11.75
	c-0.1,2.22,1.77,4.89,4.04,5.3c10.5,1.9,23.84,6.17,33.44-0.68c3.81-2.71,5.37-7.41,8.55-10.74
	C217.58,204.13,217.31,199.53,214.13,195.59z"/>
<path class="st3" d="M262.01,281.11c-1.35-0.84-2.97-0.95-4.35-1.67c-1.88-0.99-3.03-2.68-5.21-3.16c-2.58-0.56-4.74,0.43-6.21,2.53
	c-0.68,0.98-0.4,2.77-0.98,3.52c-0.49,0.62-1.9,0.71-2.56,0.83c-2.92,0.54-4.58,4.08-3.84,6.77c0.33,1.2,0.99,2.12,1.84,2.78
	c-0.55,2.56,0.67,5.59,3.7,6.77c0.35,0.14,0.71,0.28,1.06,0.41c1.74,0.68,3.67,0.04,5.05-1.19c0.32-0.13,0.65-0.26,0.98-0.41
	c1.08-0.5,2.07-1.19,3.19-1.32c1.78-0.21,3.37,0.14,5.11-0.66c1.95-0.9,3.21-2.41,4.1-4.33
	C265.71,288.11,266.16,283.69,262.01,281.11z"/>
<path class="st3" d="M305.59,406.75c2.18,0.52-0.16-1.13-0.85-1.7c-0.92-0.77-1.89-1.27-2.98-1.75c-1.63-0.71-3.27-1.18-4.95-1.52
	c-1.18-0.58-2.56-0.84-4.1-0.64c-4.75,0.62-6.32,5.05-4.63,8.11c-0.64,0.24-1.28,0.45-1.95,0.62c-2.39,0.63-4.7,0.66-7.14,0.51
	c-4.81-0.29-6.33,4.7-4.6,8.06c-1,0.37-2,0.77-2.99,1.21c-3.78,1.71-3.39,7.67,0,9.5c4.32,2.32,7.61,1.31,12.2,0.87
	c2.69-0.26,5.28,0.1,7.83,0.99c2.28,0.79,3.99,1.77,6.48,1.36c5.04-0.83,4.82-4.65,5.88-8.56c1.23-4.53,5.73-6.67,5.85-11.75
	C309.68,409.72,307.89,407.29,305.59,406.75z"/>
<path class="st3" d="M339.77,420.09c-0.25-0.62-0.54-1.23-0.82-1.84c0.08-0.14,0.16-0.31,0.26-0.53c2.06-2.29,2.07-6.28,0.79-8.87
	c-3.46-6.98-11.92-7.02-17.51-2.78c-3.45,2.61-4.84,6.34-6.52,10.19c-2.12,4.84-4.23,9.68-6.35,14.52
	c-2.81,6.42,6.67,12.03,9.5,5.55c0.1-0.22,0.19-0.44,0.29-0.65c0.67,0.51,1.48,0.87,2.34,1.05c0.05,0.18,0.1,0.35,0.16,0.53
	c0.93,2.66,3.8,4.88,6.77,3.84c6.71-2.34,12.56-8.02,12.12-15.46C340.67,423.8,340.36,421.83,339.77,420.09z"/>
<path class="st3" d="M350.81,380.85c-1.31-1.7-2.9-1.55-4.38-2.02c-0.08-4.11-0.03-8.54-4.47-10.29c-5.49-2.16-13.26-1.4-18.9-0.34
	c-3.72,0.7-4.6,4.08-3.55,6.85c-4.94,1.06-9.95,3.9-11.18,8.06c-2.37,8.03,8.61,12.96,14.19,15.41c3.85,1.69,7.52,1.61,11.48,2.67
	c3.64,0.98,6.06,3.14,10.07,2.29c1.78-0.37,3.45-2.08,3.84-3.84c0.54-2.41,0.2-4.51,1.29-6.78c1.07-2.2,2.47-3.89,2.85-6.39
	C352.35,384.5,352.07,382.48,350.81,380.85z"/>
<path class="st3" d="M398.42,395.25c-0.89-3.08-3.15-5.78-5.04-8.28c-1.76-2.34-3.84-5.74-6.51-7.13c-3.26-1.69-7.75-0.63-11.2-0.25
	c-4.06,0.45-8.1,1.01-12.13,1.64c-2.22,0.35-3.43,1.66-3.83,3.25c-2.11,0.58-3.96,1.49-5.2,2.83c-4.36,4.7-1.39,11.34,3.35,14.41
	c2.34,1.52,5.04,2.26,7.64,3.21c3.24,1.18,6.03,2.95,9.12,4.43c6.26,3.01,11.05,1.7,16.69-1.77
	C395.95,404.72,400.2,401.44,398.42,395.25z"/>
<path class="st3" d="M284.4,122.14c-3.4-3.63-6.31-6.93-11.59-6.39c-4.01,0.41-8.41,1.59-9.64,5.94c-0.37,1.32,0.06,3.37-0.59,3.98
	c-1.05,0.97-3.89,0.98-5.26,2.01c-3.84,2.88-3.26,8.26-7.34,11.15c-5.18,3.66-1.2,11.8,3.89,10.32c3.93,1.78,7.68,2.36,11.81,1.49
	c0.11,0.02,0.21,0.04,0.32,0.06c6.17,1.17,9-6.29,4.81-9.59c-0.02-0.35-0.05-0.69-0.12-0.98l-0.01-1.62c1.39-1.16,3-2.72,3.16-3
	c0.16-0.28,0.28-0.68,0.4-1.1c0.15-0.21,0.28-0.43,0.39-0.65c0.35,0.02,0.99-0.13,1.62-0.22c2.58-0.34,4.88-1.29,7.03-2.75
	C286.26,128.75,286.95,124.86,284.4,122.14z"/>
<path class="st3" d="M329.02,116.1c-3.57-4.8-9.87-6.55-15.64-6.4c-10.95,0.28-23.91,12.68-19.26,24.19
	c1.34,3.32,4.79,4.19,7.48,3.37c6.48,6.85,22.6-0.24,27.36-6.33C332.44,126.47,332.38,120.61,329.02,116.1z"/>
<path class="st3" d="M273.85,85.19c-0.22-2.83-0.43-5.84-3.14-7.48c-1.99-1.21-4.32-0.94-6.52-0.7c-2.37,0.25-5.25,0.36-7.34,1.63
	c-2.98,1.82-3.02,4.93-2.59,7.96c0.58,4.1,1.19,10.01,5.46,11.98c1.83,0.85,3.89,0.87,5.54-0.04c1.36-0.02,2.75-0.55,3.95-1.53
	C273.01,93.89,274.23,90.03,273.85,85.19z"/>
<path class="st3" d="M342.21,150.32c-0.62-0.96-1.54-1.81-2.69-2.07c-1.12-0.26-2.49-0.24-3.47,0.45c-0.85,0.6-1.75,1.2-2.44,1.98
	c-0.88,0.99-1.71,2.2-1.93,3.53c-0.19,1.17-0.23,2.41,0.45,3.47c0.54,0.84,1.23,1.45,2.15,1.84c2.11,0.89,4.38,0.06,5.62-1.84
	c0.3-0.46,0.59-0.91,0.89-1.37c0.87-0.66,1.56-1.43,1.86-2.53C342.96,152.71,342.83,151.27,342.21,150.32z"/>
<path class="st3" d="M482.15,263.99c-4.51-2.29-8.85,0.59-12.75,2.83c-3.53,2.03-14.2,5.02-16.74,9.82
	c-3.09-1.16-7.49,2.54-5.69,6.68c1.5,3.45,4.49,4.11,7.63,5.56c0.98,0.45,3.33,1.33,3.93,2.06c0.9,1.08,1.16,2.53,2.21,3.65
	c1.39,1.49,3.74,1.63,5.45,0.7c5.3-2.87,10.39-6.59,15.22-10.17c3.3-2.45,7.34-6.15,7.83-10.44
	C489.77,270.09,486,265.95,482.15,263.99z"/>
<path class="st3" d="M488.4,330.36c-2.51-3.91-7.29-5.65-11.06-7.96c-2.54-1.56-3.27-4.39-5.01-6.62c-0.25-1.51-1.18-2.93-2.99-3.6
	c-0.58-0.3-1.16-0.61-1.73-0.91c-2.68-1.66-7.15,0.44-6.77,3.89c0.08,0.72,0.23,1.63,0.31,2.54c-2.66,0.34-5.07,0.4-6.37,3.82
	c-1.76,4.65,1.46,7.95,3.68,11.57c2.25,3.66,0.95,7.91,5.98,9.49c2.14,0.67,4.35,0.87,6.47,1.67c2.36,0.89,4.3,1.96,6.9,1.87
	c3.41-0.11,7.72-1.44,9.62-4.47C489.3,338.68,490.38,333.43,488.4,330.36z"/>
<path class="st3" d="M579.26,350.42c-0.13-3.99,0.19-8.42-2.54-11.64c-1.19-1.4-2.75-2.03-4.47-2.51c-3.77-1.07-3.76-0.96-3.84-4.91
	c-0.05-2.57-2.03-4.32-4.5-4.5c-3.03-0.23-4.09,1.05-6.48,2.52c-2.69,1.65-5.61,0.29-8.71,0.01c-2.86-0.26-4.29,1.82-4.31,4.05
	c-5.07,0.47-10.21,2.89-12.2,7.31c-3.72,8.27,5.47,15.63,11.14,20.06c7.89,6.17,16.43,8.14,26.12,5.24
	C577.19,363.75,583.38,357.79,579.26,350.42z"/>
<path class="st3" d="M624.5,323.17c-0.66-1.43-1.61-2.3-2.64-3.44c-1.42-1.56-1.97-2.96-2.96-4.79c-3.36-6.27-12.66-9.83-19.44-9.27
	c-3.55,0.29-7.39,1.25-10.64,2.71c-1.63,0.73-3.16,1.63-4.45,2.89c-1.34,1.32-2.15,3.55-4.18,3.95c-5.54,1.11-3.38,9.41,2.01,8.74
	c0.61,1.23,1.55,2.37,2.49,3.36c2.03,2.15,7.15,4.95,8.12,7.32c0.59,1.42,0.09,3.37,0.77,4.94c0.67,1.54,1.72,2.69,3.07,3.67
	c2.78,2.02,6.82,3.3,10.21,3.53c7.36,0.5,14.57-6.82,17.24-13.19C625.46,330.36,626,326.45,624.5,323.17z"/>
<path class="st3" d="M693.78,326.28c-0.42-0.33-0.85-0.65-1.29-0.94c-0.04-0.02-0.06-0.04-0.1-0.06c0.03-1.39,0.15-2.72-0.37-4.09
	c-1.14-3.01-3.95-4.56-6.84-5.61c-7.32-2.66-15.23-1.66-21.99,2.03c-3.48,1.89-2.46,6.12,0.16,7.73c-1.11,1.42-2.04,3.02-2.83,4.47
	c-2.38,4.41-6.08,14.79,1.28,16.94c3.15,0.92,7.58-1.06,10.65-1.73c2.9-0.63,2.57-0.6,4.14,1.78c0.92,1.39,1.75,2.71,3.11,3.73
	c5.85,4.37,10.17-0.43,12.18-5.62C694.04,339.33,699.7,331.6,693.78,326.28z"/>
<path class="st3" d="M659.03,351.95c-3.48-0.3-5.37,1.11-8.31,2.58c-3.54,1.77-7.87,2.77-11.76,3.3c-4.3,0.58-3.75,6.25-1.07,8.22
	c0.97,0.71,1.48,2.27,2.43,3.1c0.89,0.78,2.06,1.44,3.19,1.81c3.18,1.03,6.14-0.11,9.12-1.12c2.74-0.93,6.53-0.99,8.92-2.63
	c0.85-0.58,1.5-1.36,2.04-2.23c0.3-0.22,0.59-0.48,0.86-0.82C669.11,358.47,666.24,352.57,659.03,351.95z"/>
<path class="st3" d="M672.75,428.96c2.09-4.93-1.77-7.49-5.19-10.12c-2.28-1.75-3.42-3.95-4.11-6.7c-0.61-2.44-1.23-4.46-3.6-5.75
	c-5.1-2.78-10.88,1.05-16.14,0.39c-1.1-0.14-2.07,0.29-2.83,0.99c-1.84-0.76-4.02-0.38-5.17,1.93c-0.51,1.02-1.6,4.11-2.13,4.59
	c-0.46,0.42-2.88,1.14-3.91,1.53c-2.7,1.02-4.24,3.9-2.69,6.61c2.15,3.76,4.97,6.9,8.57,9.33c2.24,1.51,4.7,2.37,5.84,5.04
	c0.91,2.12,1.03,4.53,1.93,6.68c1.45,3.43,4.24,6.82,8.19,7.24c1.97,0.21,3.77-0.28,5.34-1.43c0.75-0.54,1.32-1.29,2.03-1.87
	c0.74-0.62,1.54-1.15,2.4-1.59c0.33-0.1,0.54-0.2,0.64-0.31c0.71,0.4,1.51,0.57,2.32,0.51c2.66,1.01,5.96-0.25,5.98-3.99
	c0.01-1.75,0.02-3.49,0.03-5.24c0.01-1.53-0.54-2.63-1.36-3.34C670.57,432.38,671.95,430.86,672.75,428.96z"/>
<path class="st4" d="M150.28,329.61c-4.47-7.83-13.79-8.74-19.47-1.58c-2.62,3.31-4.81,7.14-5.41,11.35
	c-0.26,1.84-0.88,3.5-1.16,5.31c-0.19,1.2-0.14,2.16,0.13,3.33c0.32,1.39,0.5,1.36-0.02,2.08c-3.77,5.23,4.9,10.23,8.63,5.05
	c2.82-3.91,0.96-7.24,1.92-11.32c0.53-2.24,0.45-4.16,1.56-6.29c1.03-1.98,3.29-6.19,5.18-2.89
	C144.84,340.24,153.48,335.21,150.28,329.61z"/>
<path class="st4" d="M155.85,338.44c-1.3-1.49-2.03-2.5-2.46-4.47c-0.4-1.86-0.23-3.62-0.99-5.41c-1.03-2.43-2.94-4.18-5.29-5.32
	c-6.06-2.94-12.07,0.12-17.66,2.57c-3.13,1.37-3.15,4.44-1.62,6.64c-0.14,0.31-0.29,0.62-0.41,0.94c-0.48,0.39-0.95,0.88-1.39,1.5
	c-1.85,2.59-2.85,6.72-3.81,9.72c-0.94,2.93-0.92,6.01-0.49,9.04c0.39,2.75,1.55,5.13,4.47,5.96c0.42,0.12,0.82,0.18,1.21,0.2
	c0.36,0.17,0.75,0.31,1.19,0.39c1.63,0.3,3.25,0.6,4.88,0.89c1.05,1.3,2.52,1.92,3.83,3.26c1.96,2,5.08,1.79,7.07,0
	c1.2-1.08,2.21-2.25,3.03-3.64c0.2-0.34,0.33-0.58,0.41-0.74c0.05,0.01,0.14-0.02,0.31-0.12c2.64-1.58,4.54-2.82,6.25-5.47
	C157.77,349.16,160.43,343.69,155.85,338.44z"/>
<path class="st4" d="M199.34,310.68c-3.53-1.18-6.63-1.5-10.02-3.26c-2.71-1.41-5.27-3.25-8.02-4.55c-2.68-1.27-4.71-0.74-7.48,0.03
	c-3.04,0.86-6.16,0.27-9.13,1.53c-2.81,1.18-3.67,4.03-3.15,6.4c-1.31,1.2-2.37,2.7-3.08,4.53c-1.86,4.79-3.65,9.45-1.24,14.38
	c1.21,2.46,2.41,4.2,3.06,6.89c0.62,2.57,1.06,5.52,3.59,7.01c2.02,1.19,4.81,0.85,7.01,0.85c2.55,0,5.46,0.26,7.95-0.47
	c2.26-0.66,3.92-2.02,5.31-3.86c1.98-2.62,3.68-3.6,6.2-5.7c2.43-2.02,4.26-4.65,6.69-6.71c2.15-1.83,4.99-3.03,6.65-5.37
	C206.87,317.89,204.27,312.34,199.34,310.68z"/>
<path class="st4" d="M224.28,269.2c-3.39-4.11-8.06-4.7-12.79-6.59c-4.2-1.68-7.79-2.4-11.58,0.74c-1.58,1.31-2.66,2.98-3.83,4.64
	c-1.4,1.98-2.64,2.77-4.73,3.95c-4.39,2.47-7.06,6.32-9.47,10.64c-1.27,2.27-0.61,4.45,0.83,5.87c-0.93,3.69,0.71,7.24,3.26,10
	c5.88,6.39,14.8,11.09,23.61,9.14c3.64-0.81,7.32-2.76,9.21-6.11c1.04-1.84,1.34-4.02,2.32-5.89c1.2-2.29,2.94-4.22,4.06-6.58
	c0.79-1.67,1.5-3.57,1.55-5.45c0-0.12,0.15-1.41,0.02-1.51c0.36-0.47,0.91-0.92,1.15-1.38C230.16,276.3,226.99,272.49,224.28,269.2z
	 M206.43,298.03c1.15-0.44,2.27-1.03,3.32-1.71C208.89,297.34,207.73,297.86,206.43,298.03z"/>
<path class="st4" d="M257.42,341.97c-1.59-4.25-5.61-4.67-9.56-4.1c-2.15,0.31-4.12,1.09-6.22,1.52c-3.33,0.69-4.8-0.78-7.57-2.02
	c-3.3-1.49-6.97-0.93-9.6,1.66c-3.37,3.32-6.19,10.46-4.96,15.57c-0.69,8.82,8.4,18.32,15.11,22.76c4.4,2.92,8.99-2.66,6.89-6.7
	c0.08-0.12,0.17-0.25,0.29-0.4c0.79-1.07,1.3-2.75,1.94-3.96c1.02-1.93,2.03-3.6,3.65-5.09c3-2.75,7.18-4.84,9.21-8.47
	C258.29,349.73,258.63,345.22,257.42,341.97z"/>
<path class="st4" d="M228.52,406.5c-1.58-3.84-7.15-8.48-10.79-10.35c-4.55-2.34-11.18-1.13-15.77,0.46
	c-10.49,3.65-18.19,12.68-15.41,24.14c0.72,2.95,3.25,3.92,5.56,3.46c3.48,3.22,6.55,8.19,11.88,7.2c2.47-0.46,3.37-2.07,5.13-3.47
	c2.36-1.86,4.69-0.24,7.5-0.23c5.04,0.02,8.75-3.34,9.34-8.27c0.33-2.74,1.08-3.85,2.19-6.27
	C229.12,411.07,229.42,408.69,228.52,406.5z M215.75,417.84c0.28-0.26,0.53-0.54,0.77-0.83c-0.03,0.51-0.01,0.81,0.1,0.71
	C216.51,417.83,216.19,417.86,215.75,417.84z"/>
<path class="st4" d="M282.22,403.11c-1.99-6.1-9.01-8.92-14.85-9.55c-5.9-0.64-12.84,0.12-16.72,5.12
	c-0.93,1.21-1.61,2.45-1.99,3.93c-0.25,0.95,0.08,3.16-0.33,3.84c-0.41,0.67-2.57,1.78-3.16,2.45c-1.27,1.42-1.91,3.05-2.36,4.87
	c-0.12,0.48-0.16,0.93-0.16,1.36c-2.13,2.25-2.83,5.18,0.17,8.32c2.19,2.29,6.22,5.62,9.36,6.47c3.35,0.91,7.25-0.03,10.61-0.31
	c3.13-0.27,5.97-0.22,7.95-2.92c2.15-2.92,2.63-6.94,4.4-10.08C277.95,411.64,284.52,410.16,282.22,403.11z"/>
<path class="st4" d="M281.11,338.5c-3.75-3.17-10.1-4.27-14.18-1.21c-3.99,2.99-5.3,9.1-7.07,13.53c-0.86,2.15,0.56,4.64,2.49,5.73
	c0.66,2.42,2.83,4.31,5.89,3.25C275.71,357.22,291.49,347.29,281.11,338.5z"/>
<path class="st4" d="M316.99,344.86c-2.22-1.72-4.85-2.55-7.65-2.68c-1.29-0.06-2.56,0.08-3.83,0.23c-0.75,0.1-1.5,0.2-2.25,0.3
	c0.69,0.93,0.74,1.02,0.17,0.26c-0.95-0.31-1.92-1.65-3.13-2.01c-1.31-0.39-2.38-0.41-3.74-0.15c-3.12,0.59-5.77,2.86-8,4.99
	c-0.77,0.74-1.22,1.54-1.41,2.36c-4.56,1.91-7.44,6.37-8.12,11.33c-0.89,6.45,4.78,8.89,9.99,10.56c3,0.96,6.31,1.37,9.42,0.71
	c1.41-0.3,2.81-0.81,3.98-1.67c1.33-0.98,1.35-1.96,2.43-3.04c1.96-1.98,6.1-2.17,8.6-3.47c2.22-1.15,4.62-2.77,6.07-4.85
	C322.54,353.43,320.97,347.94,316.99,344.86z"/>
<path class="st4" d="M290.12,299.03c-0.53-1.15-1.87-2.52-2.17-3.69c-0.07-0.27,0.55-2.61,0.54-3.01c-0.06-2.95-1.34-5.46-3.78-7.13
	c-5.2-3.57-12.76-1.24-18.22,0.44c-5.51,1.69-11.83,4.87-12.12,11.43c-0.28,6.34,3.11,11.33,9.28,12.72
	c1.28,0.29,2.4,0.11,3.34-0.36c1.79,0.24,3.68,0.05,5.56,0.32c3.28,0.47,6.5,1.33,9.85,1.09
	C289.59,310.32,293.22,305.74,290.12,299.03z"/>
<path class="st4" d="M91.71,207.02c-0.3-4.72-1.82-8.84-5.13-12.28c-6.45-6.7-16.9-10.85-25.77-6.57c-4.02,1.94-7.15,5.59-9.29,9.47
	c-2.82,5.1-1.19,9.24-1.18,14.65c0,0.25,0.02,0.5,0.05,0.73c-0.23,2.73,0.3,5.57,1.86,8.37c3.22,5.79,13.71,12.15,20.33,8.11
	c3.18-1.94,2.24-6.66,5.32-7.99c3.73-1.61,8.85-1.48,11.87-4.68C92.11,214.36,91.91,210.15,91.71,207.02z"/>
<path class="st4" d="M147.32,164.81c-3.98-3.77-9.43-1.82-13.32-5.29c-4.35-3.88-7.93-6.99-13.7-3.71
	c-4.7,2.67-8.52,7.08-12.4,10.77c-4.71,4.47-7.09,8.53-8.29,14.95c-0.55,2.98,1.32,5.16,3.58,5.94c0.63,0.94,1.54,1.67,2.71,1.96
	c1.25,0.32,2.35,0.76,3.46,1.13c0.86,3.15,1.72,6.3,2.58,9.45c0.43,1.59,2.86,2.04,3.66,0.48c0.75-1.47,1.49-2.93,2.24-4.4
	c0.66-1.3,1.27-2.95,2.17-4.05c0.73-0.88,2.21-1.35,3.23-2.19c0.53-0.44,0.96-0.96,1.26-1.53c0.13-0.02,0.26-0.05,0.38-0.09
	c4.69,0.18,9.54,1.83,14.18,0.17c4.03-1.45,10.24-6.58,12.17-10.45C153.57,173.25,150.8,168.11,147.32,164.81z"/>
<path class="st4" d="M166.7,196.67c-6.08-2.89-14.78,1.08-19.97,4.5c-3.77,2.48-6.09,5.96-7.61,9.86c-0.61,0.71-1.12,1.55-1.5,2.58
	c-0.91,2.43-1.41,5.38-1.43,7.96c-0.07,7.46,5.51,12.56,12.83,12.61c3.7,0.03,7.36-1.17,10.09-3.71c0.78-0.72,1.73-2.41,2.61-2.93
	c1.02-0.6,1.55-0.21,2.86-0.1c3.88,0.35,7.34-1.6,8.65-5.33c0.93-2.65,2.08-5.78,2.2-8.61C175.69,207.16,172.69,199.51,166.7,196.67
	z"/>
<path class="st4" d="M242.59,138.88c-5.41-7.97-11.06-20.38-22.65-18.83c-2.54,0.34-4.4,1.4-6.11,3.32
	c-0.67,0.75-1.7,1.88-2.07,2.82c-0.33,0.43-0.67,0.86-1,1.29c1.83,0.03,2.21,0.08,1.16,0.15c-0.9,0.44-2.21,0.23-3.2,0.65
	c-1.34,0.56-2.2,1.41-3.1,2.5c-1.9,2.31-2.98,5.27-4.29,7.94c-1.74,3.55-0.37,6.91,2.05,8.88c0.54,1.57,1.36,3.13,1.8,4.97
	c0.8,3.39,0.48,6.3,3.38,8.91c4.96,4.45,17.32,4.49,20.99-1.66c0.79-1.33,0.89-2.55,1.3-3.96c0.63-2.16,1.58-3.58,2.64-5.52
	c0.21,0.01,0.53-0.03,0.95-0.12c1.67,0.45,4.3-0.97,5.64-1.77C243.17,146.62,244.73,142.03,242.59,138.88z"/>
<path class="st4" d="M254.71,197.67c-2.11-4.61-7.98-7.25-12.66-8.38c-5.07-1.22-10.49-0.44-14.51,3.03
	c-1.9,1.64-3.49,3.78-4.15,6.25c0.01-0.05-0.51,2.79-0.07,3.02c-0.73,0.42-1.84,0.78-2.31,1.08c-3.66,2.31-3.01,6.76-0.58,9.01
	c0.24,1.25,0.9,2.57,2.1,3.98c2.93,3.45,9.48,3.75,13.56,2.64c2.82-0.77,5.11-2.64,7.92-3.5c2.59-0.79,5.14-1.83,7.22-3.62
	C255.06,207.9,256.88,202.41,254.71,197.67z"/>
<path class="st4" d="M239.53,87.43c-0.99-2.66-2.3-5.32-4.9-6.77c-2.36-1.32-5.34-1.03-7.27,0.95c-1.03,1.06-1.63,2.53-1.94,3.96
	c-0.44,2.06,0.05,3.78,1.14,5.51c0.15,0.23,0.28,0.47,0.41,0.71c0.15,0.56,0.3,1.11,0.39,1.69c0.43,2.85,4.17,4.68,6.77,3.84
	c0.5-0.16,0.93-0.38,1.33-0.62C239.25,95.55,240.98,91.31,239.53,87.43z"/>
<path class="st4" d="M365.7,127.17c-2.12-4.36-6.8-6.88-10.13-10.18c-3.41-3.38-7.9-5.02-12.72-4.9c-4.66,0.12-12.91,3.5-16.48,8.34
	c-1.5,0.58-2.91,1.28-4.15,2.1c-3.04,1.99-3.59,5.94-1.11,8.64c3.15,3.43,6.66,3.57,10.61,3.71c0.72,1.82,2.34,3.26,4.88,3.3
	c2.48,0.04,4.96,0.03,7.44,0c1.78,0.87,3.55,1.75,5.35,2.38c4.42,1.56,10.04,2.28,13.96-0.86
	C367.04,136.71,367.73,131.34,365.7,127.17z"/>
<path class="st4" d="M329.95,169.36c-1.93-6.14-1.55-14.6-9.35-16.55c-3.18-0.8-6.16,0.47-9.03,1.65c-1.56,0.64-3.14,1.42-4.75,1.93
	c-2.25,0.72-4.31,0.39-6.64,0.45c-6.8,0.17-16.26,2.49-20.23,8.61c-4.34,6.7,1.5,12.68,6.19,17.6c-3.4,2.21-6.48,4.82-8.51,7.94
	c-3.44,5.29-2.91,14.44,2.37,18.45c2.59,1.97,6.1,2.23,8.97,3.71c3.14,1.62,5.91,3.96,9.48,4.59c7.38,1.29,12.94-6.97,16.89-12.02
	c2.23-2.86,4.75-5.71,6.27-9.01c1.48-3.22,3.66-4.85,6.01-7.4C333.11,183.36,332.21,176.54,329.95,169.36z"/>
<path class="st4" d="M304.73,241.02c-0.39-2.16-1.52-3.62-3.01-4.45c-0.47-2.6-2.28-4.88-4.87-6.88c-3.95-3.06-8.1-7.34-13.42-7.21
	c-4.26,0.1-8.67,3.22-12.64,4.69c-2.21,0.82-3.78,1.93-4.87,3.29c-1.79,0.79-3.35,1.87-4.45,3.26c-4.23,5.33-1.85,15.31,1.61,20.51
	c2.17,3.25,5.39,6.73,8.71,8.81c1.71,1.08,3.63,1.8,5.66,1.92c0.52,0.03,1.14-0.09,1.8-0.24c-0.01,6.35,9.23,6.74,10.78,1.19
	c0.22,0.04,0.44,0.09,0.66,0.11c1.11,0.11,2.28,0.09,3.38-0.17c1.89-0.44,3.81-1.47,5.34-2.64c3.79-2.9,3.68-6.73,3.64-11.12
	c-0.02-2.13,0.06-3.96,0.82-5.95C304.52,244.4,305.06,242.91,304.73,241.02z"/>
<path class="st4" d="M392.41,205.46c-0.17-0.89-0.43-1.76-0.82-2.59c-0.73-1.82-1.77-3.66-3.17-5.07c-3.13-3.17-6.23-2.3-10.22-1.87
	c-0.9,0.08-1.8,0.1-2.7,0.1c0.51-1.56,0.35-4.02,0.29-5.52c-0.16-3.88-1.21-7.65-3.68-10.7c-2.72-3.34-6.63-5.28-10.31-7.36
	c-3.36-1.89-6.64-3.98-10.61-4.16c-3.37-0.15-6.83,0.43-8.46,3.7c-1.48,2.96-1.05,6.21-1.09,9.35c-0.8,0.03-1.59,0.06-2.31,0.12
	c-3.21,0.29-5.17,2.3-5.5,5.5c-0.77,7.37,5.09,12.98,9.32,18.32c0.76,0.96,1.62,1.51,2.5,1.75c0.44,0.92,1.14,1.71,2.16,2.17
	c2.58,1.19,5.1,2.15,7.88,2.77c1.35,0.3,2.54,0.15,3.53-0.28c-0.12,2.6-0.47,5.16-0.93,7.4c-3.2,3.14-2.06,9.88,3.51,9.46
	c3.19-0.24,6.01-0.03,9.12,0.77c2.83,0.73,5.37,1.66,8.32,1.3c2.1-0.26,3.85-1.06,5.58-2.25c1.72-1.19,3.29-3.47,5.33-4.03
	c3.07-0.84,4.35-3.83,3.84-6.77c0.22,1.26,1.1-0.18,1.88-0.99c0.92-0.95,1.72-1.96,2.52-3.02
	C401.48,209.5,396.57,204.73,392.41,205.46z"/>
<path class="st4" d="M392.04,245.49c-0.27-0.96,0.66-3.6,0.61-5.39c-0.06-2.34-0.92-4.58-2.54-6.27c-3.32-3.46-7.57-2.87-11.84-2.03
	c-6.05,1.19-12.05,0.64-18.17,0.86c-10.38,0.36-16.26,11.93-17.78,21.16c-0.84,5.13,4.75,8.09,8.17,6.45
	c1.15,1.81,3.37,2.83,5.59,2.55c0.15,0.47,0.34,0.91,0.6,1.29c1.55,4.81,8.81,5.55,10.51-0.02c0.14-0.46,0.24-0.9,0.33-1.33
	c0.21,0.01,0.42,0.02,0.63,0.03c1.48,0.09,2.93,0.49,4.41,0.57c2.59,0.15,4.98-0.17,7.21-1.57c3.73-2.34,9.31-2.82,12.51-5.8
	c1.34-1.25,2.15-3.16,2.12-4.95C394.36,248.45,392.64,247.62,392.04,245.49z"/>
<path class="st4" d="M380.4,160.65c-0.18-0.44-0.37-0.88-0.55-1.31c-0.49-0.83-1.15-1.48-1.97-1.97c-0.54-0.27-1.13-0.59-1.74-0.69
	c-0.49-0.07-0.97-0.13-1.46-0.2c-0.02,0-0.04,0-0.06-0.01c-0.04,0-0.07,0-0.11,0c-0.05,0-0.09,0-0.14,0.01
	c-0.49,0.04-1.06,0.13-1.55,0.21c-0.72,0.17-1.34,0.5-1.87,0.98c-0.6,0.39-1.07,0.9-1.42,1.54c-0.4,0.63-0.62,1.31-0.65,2.04
	c-0.16,0.73-0.13,1.46,0.1,2.19c0.18,0.44,0.37,0.88,0.55,1.31c0.49,0.83,1.15,1.48,1.97,1.97c0.44,0.18,0.88,0.37,1.31,0.55
	c0.34,0.09,0.68,0.14,1.02,0.17c0.17,0.03,0.35,0.05,0.53,0.06c0.73,0.16,1.46,0.13,2.19-0.1c0.72-0.17,1.34-0.5,1.87-0.98
	c0.6-0.39,1.07-0.9,1.42-1.54c0.18-0.44,0.37-0.88,0.55-1.31C380.66,162.6,380.66,161.62,380.4,160.65z"/>
<path class="st4" d="M403.03,182.81c-0.73-1.42-1.92-2.69-2.67-4.11c0.4-0.73,0.89-1.47,1.11-2.24c0.57-1.99,0.37-4.22-0.42-6.11
	c-1.52-3.63-5.34-5.94-9.26-5.54c-0.75,0.08-1.47,0.26-2.13,0.55c-1.45-0.2-3,0.17-4.38,1.41c-3.6,3.22-6.52,8.35-6.31,13.33
	c0.12,2.8,1.66,5.29,4.14,6.6c1.77,0.93,4.44,0.69,5.81,1.58c1.03,0.68,1.72,1.92,2.78,2.65c0.84,0.57,1.7,1.05,2.69,1.36
	c2.52,0.77,5.6,0.18,7.49-1.72C403.97,188.5,404.35,185.38,403.03,182.81z"/>
<path class="st4" d="M471.03,168.28c-3.86-10.24-12.1-18.93-23.38-20.31c-4.51-0.55-11.05-0.37-12.77,4.8
	c-0.66,1.98-0.62,2.72-1.75,4.57c-0.81,1.32-1.56,2.8-2.05,4.28c-0.04,0.12-0.09,0.33-0.14,0.57c-0.39-0.04-0.77-0.07-1.08-0.07
	c-6.11-0.1-6.94,8.06-2.52,10.39c0.18,1.2,0.71,2.35,1.51,3.2c4,4.21,8.58,7.94,13,11.7c3.97,3.38,8.65,8.49,14.34,6.5
	c4.89-1.72,9.24-7.18,12.45-11.04C472.63,178.08,473.25,174.17,471.03,168.28z"/>
<path class="st4" d="M486.34,160.01c-3.65-0.25-7.35,1.17-9.47,4c-0.99,1.01-1.61,2.41-1.71,3.92c-0.31,4.59-0.59,11.45,5,12.89
	c3.33,0.86,5.64-0.94,7.52-3.42c1.2-1.59,2.53-3.16,3.61-4.84C494.3,167.91,492.58,160.43,486.34,160.01z"/>
<path class="st4" d="M414.97,222.83c-1.09-0.43-2.12-0.18-3.22-0.3c-0.3-0.03-1.31-0.31-1.86-0.51c-2.02-0.74-3.74-1.31-5.92-1.53
	c-2.96-0.29-5.5,2.74-5.5,5.5c0,0.22,0.01,0.43,0.04,0.63c-0.76,2.82,0.12,5.34,1.29,8.25c1.07,2.66,2.14,5.87,5.76,6.77
	c4.07,1.02,7.14-1.5,9.38-4.55c1.91-2.59,3.79-5.71,4.06-8.96C419.23,225.55,417.11,223.68,414.97,222.83z"/>
<path class="st4" d="M484.38,251.5c-0.9-4.77-4.93-8.98-9.12-11.22c-2.17-1.16-4.73-1.14-6.83-2.35c-2.19-1.26-2.66-3.26-3.95-5.25
	c-2.8-4.32-8.06-4.98-11.72-1.45c-0.41,0.39-0.63,0.96-1.05,1.34c-0.05,0.04-1.24,0.81-2.01,1.41c-0.1-0.14-0.2-0.28-0.31-0.41
	c-0.81-1.15-1.77-1.97-3.07-2.52c-3.65-1.56-8.33,0.17-8.28,4.75c0.04,3.12,2.26,10.21-0.44,12.18c-5.2,3.79-1,12.14,4.16,10.25
	c0.05,3.58,0.26,7.18,0.53,10.73c0.36,4.66,1,8.77,5.54,11.08c8.37,4.26,19.19,1.13,26.04-4.5c3.18-2.62,6.34-6.2,7.74-10.13
	c0.82-2.31,0.94-4.74,1.77-7.06C484.24,256.03,484.86,254.04,484.38,251.5z"/>
<path class="st4" d="M373.78,313.64c-2.26-4.72-7.44-5.8-12.17-5.87c-2.29-0.04-6.22,0.88-8.28-0.18c0.64,0.33-0.1-0.69-0.35-1.02
	c-0.58-0.75-0.82-1.58-1.54-2.29c-8.29-8.1-18.85,8.71-24.3,12.65c-3.71,2.68-2.66,7.68,0.11,9.67c-1.25,0.97-2.39,2.12-3.34,3.64
	c-2.71,4.34,1.75,8.97,6.21,8.08c5.64-1.13,11.37,2.4,16.91,3.14c4.85,0.64,10.14-0.08,13.94-3.43c1.81-1.59,2.99-3.54,4.11-5.63
	c1.33-2.49,2.68-3.69,4.75-5.53C373.58,323.55,376.12,318.54,373.78,313.64z"/>
<path class="st4" d="M343.62,447.2c-1.63-3.85-3.38-7.47-7.18-9.58c-4.51-2.51-9.66-3.78-14.22-6.32c-1.78-0.99-3.57-0.89-5.03-0.15
	c-4.23-3.5-11.67,1.53-8.27,6.97c0.6,0.97,1.18,1.95,1.74,2.94c-0.8,0.33-1.57,0.7-2.26,1.15c-1.58,1.02-2.83,2.78-2.72,4.75
	c0.13,2.32,0.89,4.42,0.76,6.76c-0.11,2.01-0.57,4.01,0.12,5.99c0.66,1.88,1.96,3.42,3.67,4.38c1.4,0.79,3.88,0.63,5.09,1.66
	c1.35,1.14,1.65,3.29,3.21,4.46c1.63,1.21,4.01,1.63,6,1.21c4.95-1.05,5.85-7.25,10.87-7.88c4.12-0.52,8.7,1.06,10.79-3.89
	C347.78,455.84,345.09,450.68,343.62,447.2z"/>
<path class="st4" d="M375.9,463.97c-2.33-1.8-6.21-0.36-7.53,1.97c-1.19,2.11-3.96,1.89-6,2.96c-2.12,1.11-3.61,2.68-4.74,4.79
	c-2.51,4.7-3.17,10.52-3.49,15.74c-0.1,1.65,0.43,2.9,1.29,3.78c0.23,1.03,0.72,2.02,1.42,2.88c1.89,2.31,3.52,4.74,5.05,7.29
	c2.59,4.32,8.44,2.99,10.05-1.31c0.83-2.21,3.45-1.54,5.43-2.47c2.12-0.99,3.99-2.77,5.78-4.25c3.51-2.92,8.06-6.18,9.54-10.72
	C396.3,473.58,382.7,469.21,375.9,463.97z"/>
<path class="st4" d="M424.25,436.87c-10.78-5.4-21.97,0.36-28.55,9.38c-2.19,3.01-0.6,5.95,2,7.24c-2.06,6.21-1.19,13.84,4.75,16.99
	c6.99,3.7,14.72,9.15,22.8,5.31c3.97-1.89,6.91-5.29,8.46-9.38c0.75-1.97,1.86-5.6,1.39-7.75c-0.06-0.29-0.1-0.52-0.11-0.7
	c0.84-0.18,1.69-0.48,2.38-0.93C448.24,449.85,429.48,439.5,424.25,436.87z"/>
<path class="st4" d="M425.38,368.13c-2.97-3.16-6.51-2.95-10.49-3.5c-3.74-0.51-5.41-3.19-8.75-4.48c-3.7-1.43-7.65-0.44-10.64,2.07
	c-3.13,2.63-5.29,6.72-7.97,9.8c-2.64,3.03-4.96,6.14-5.46,10.24c-0.9,7.34,4.38,13.8,11.09,16.03c0.76,0.96,1.63,1.82,2.62,2.53
	c3.11,2.21,6.48,1.97,9.93,3.11c3.63,1.21,6.19,3.06,10.2,2.87c3.72-0.17,6.43-2,7.55-5.58c1.17-3.76,1.2-7.99,1.91-11.85
	c0.75-4.07,2.61-7.98,2.9-12.12C428.5,373.96,427.69,370.58,425.38,368.13z"/>
<path class="st4" d="M466.37,427.21c-0.96-1.82-2.52-2.61-3.98-3.93c-1.78-1.61-3.15-3.72-4.65-5.6c-2.59-3.24-5.77-6.64-10.33-6.34
	c-4.12,0.27-7.46,3.54-8.02,7.6c-0.26,1.87,0.06,3.83,1.02,5.48c0.41,0.71,0.98,1.21,1.46,1.7c-2.11,0.38-4.27,0.63-6.25,1
	c-6.13,1.14-4.56,9.51,0.64,10.6c0.36,1.55,1.31,2.95,2.86,3.66c1.24,2.46,3.53,3.67,6.43,3.12c0.65-0.12,1.62-0.35,2.61-0.5
	c0.12,1.35,0.19,2.82,0.38,3.58c0.52,2.04,1.17,4.6,2.76,6.14c3.26,3.16,8.52,2.1,11.48-0.84c3.19-3.17,3.27-7.34,3.25-11.54
	C466.02,436.57,468.79,431.81,466.37,427.21z"/>
<path class="st4" d="M471.03,360.69c-1.73-6.66-3.12-12.41-10.11-15.27c-6.33-2.59-12.94-0.82-18.9,1.9
	c-6.26,2.85-13.62,7.21-12.83,14.96c0.76,7.46,5.63,8.31,11.33,8.3c0.1,1.68,0.42,3.33,1.15,4.97c2.39,5.41,9.19,11.39,15.24,11.96
	c5.57,0.53,13.45-1.1,16.39-6.29C477.05,374.6,472.73,367.23,471.03,360.69z"/>
<path class="st4" d="M531.37,399.83c0.22-1.41,0.41-2.83,0.51-4.28c0.2-2.62-2.52-5.65-5.23-5.51c-0.15-0.31-0.3-0.62-0.47-0.92
	c-0.73-1.18-1.77-2.34-2.79-3.27c-2.68-2.43-6.19-3.7-9.7-4.31c-3.28-0.56-7.61-1.19-10.8-0.04c-1.4,0.51-2.3,1.52-3.56,2.23
	c-1.34,0.76-2.76,1.06-4.19,1.64c-6.51,2.61-8.81,10.38-11.2,16.37c-1.07,2.67-1.46,5.68,0.86,7.93c2.38,2.31,6.62,2.4,9.83,2.87
	c0.58,8.91,5.43,15.83,15.39,13.56c4.61-1.05,7.98-3.15,11.09-6.62c3.55-3.97,7.64-6.72,12.18-9.44
	C537.83,407.32,535.9,400.52,531.37,399.83z"/>
<path class="st4" d="M509.68,302.07c-1.41-1.84-3.88-2.98-4.63-4.97c-0.95-2.51-0.32-4.77-2.69-6.87c-2-1.77-4.76-2.37-7.35-1.84
	c-1.51,0.31-2.74,1.16-4.33,1.22c-1.44,0.05-3.02-0.62-4.49-0.68c-6.19-0.23-12.22,2.55-16.11,7.34c-0.77,0.95-1.16,1.97-1.28,2.98
	c-1.81,0.97-3.32,2.37-4.32,4.29c-5.69,10.89,8.02,21.23,15.7,26.38c2.1,1.41,4.26,2.64,6.89,2.21c2.93-0.48,4.92-3.06,7.47-4.41
	c5.06-2.67,10.36-3.65,14.05-8.47C512.39,314.3,513.7,307.31,509.68,302.07z"/>
<path class="st4" d="M546.5,328.32c-1.09-3.19-3.76-4.59-5.75-7.1c-2.09-2.63-3.86-5.18-7.26-6.19c-7.26-2.15-13.69,3.35-19.26,7.72
	c-2.64,0.43-5.11,1.51-6.95,3.56c-3.94,4.38-3.87,11.52,0.6,15.4c4.49,3.9,10.84,8.05,16.96,7.71c5.97-0.34,13.68-0.71,18.44-4.83
	C547.8,340.66,548.36,333.76,546.5,328.32z"/>
<path class="st4" d="M582.6,385.31c-0.23-3.26-0.56-7.8-2.15-10.69c-1.51-2.75-4.12-5.02-6.86-6.54c-3.4-1.9-6.42-1.19-9.92,0.08
	c-4.42,1.6-8.87,3.14-13.25,4.82c-3.56,1.37-8.18,2.76-10.13,6.3c-1.78,3.22-0.83,7.39,2.42,9.33c0.2,0.12,0.42,0.23,0.63,0.35
	c-0.16,0.43-0.33,0.85-0.51,1.26c-0.61,1.49-1.05,2.85-1.27,4.31c-1.56,5.32,0.97,10.17,6.25,13.23c2.96,1.72,5.46,3.4,8.94,3.9
	c4.05,0.58,8.77,0.39,12.75-0.58c3.36-0.82,6.54-2.61,8.6-5.43c2.29-3.15,2.18-6.17,2.25-9.84
	C580.4,392.1,582.88,389.26,582.6,385.31z M552.38,396.91c0.06-0.1,0.16-0.21,0.27-0.35c0.04,0.43,0.13,0.87,0.26,1.32
	c-0.26-0.2-0.45-0.32-0.56-0.43C552.36,397.27,552.37,397.09,552.38,396.91z"/>
<path class="st4" d="M622.97,369.17c-2.56-6.02-7.4-9.25-13.96-9.24c-5.7,0.01-14.29-0.06-18.19,4.79c-1.8,2.24-2.53,5.11-1.99,7.95
	c0.19,0.98,0.54,1.87,1.02,2.7c-3.73,2.16-3.5,7.39-0.92,9.59c-0.87,4.97,1.54,10.08,5.27,13.37c4.48,3.96,9.3,7.55,15.37,4.14
	c5.5-3.09,8.4-10.72,11.99-15.64C625.88,380.91,625.78,375.79,622.97,369.17z"/>
<path class="st4" d="M660.39,317.92c-1.97-2.21-4.13-5.55-7.33-5.98c-1.4-0.19-2.38,0.39-3.66,0.6c-2.13,0.35-2.01,0.47-4.04-0.58
	c-6.26-3.23-10.44-1.26-14.72,3.93c-4.96,6.02-10.12,11.85-15.52,17.47c-3.73,3.89-0.13,9.31,3.97,9.44
	c0.48,1.46,1.62,2.62,3.58,2.91c4.73,0.72,3.75,3.56,4.52,7.53c0.55,2.81,1.64,5.28,4.19,6.86c5.45,3.37,11.71-0.54,16.89-2.5
	c2.79-1.05,5.54-2.3,7.69-4.43c2-1.98,3.03-4.64,4.67-6.8c0.79-1.04,1.65-1.91,2.14-3.16c0.61-1.59,0.14-3.54,0.66-4.99
	c0.81-2.22,2.91-3.37,3.44-5.92C668.04,326.72,663.84,321.78,660.39,317.92z"/>
<path class="st4" d="M666.09,376.46c-1.79-2.94-4.26-2.87-7.19-3.73c-2.94-0.86-4.69-3.67-7.73-4.37c-3.47-0.79-6.09,0.66-8.4,2.78
	c-0.94,0.04-1.94,0.16-3.04,0.4c-5.15,1.12-10.87,3.62-13.59,8.41c-2.79,4.9-1.89,12.61-0.94,17.94c0.95,5.33,4.39,8.51,9.68,9.46
	c5.61,1.01,13.23,1.62,18.75,0.1c5.59-1.55,9.67-7.09,11.12-12.55c0.37-1.37,0.2-2.92,0.63-4.26c0.68-2.11,2.04-3.43,2.35-5.75
	C668.07,382.21,667.53,378.82,666.09,376.46z"/>
<path class="st4" d="M718.54,347.14c-1.01-3.29-2.36-6.65-5.48-8.5c-1.57-0.93-3.45-1.36-5.26-1.18c-0.15,0-0.3,0.02-0.46,0.03
	c-0.31-1.24-0.59-2.5-0.98-3.71c-0.74-2.28-1.82-4.12-3.41-5.91c-2.5-2.82-6.77-1.64-8.64,1.11c-0.7,1.03-2.27,1.13-3.27,1.82
	c-1.51,1.04-2.55,2.57-2.97,4.38c-0.49,2.11,0.06,4.35,0.14,6.48c0.05,1.26,0.04,2.51-0.01,3.77c-0.08,0.57-0.13,0.97-0.15,1.24
	c-2.49,2.75-1.23,6.25,1.24,7.96c0.61,1.08,1.62,1.97,3.11,2.45c3.21,1.03,6.43,1.48,9.79,1.38c0.5,0.43,0.97,1.04,1.47,1.94
	c1.58,2.86,2.47,5.89,3.08,9.08c0.96,4.98,7.64,4.94,10.05,1.31C721.58,363.65,720.97,355.04,718.54,347.14z"/>
<path class="st4" d="M746.44,387.8c3.91-1.78,3.93-9.14-1.04-10.45c-0.81-0.21-5.64-2.07-5.01-1.05c-0.56-0.73-1-1.78-1.64-2.41
	c-2.27-2.24-6.22-4.33-9.17-5.37c-2.89-1.02-6.05-1.08-8.38,1.32c-0.93,0.96-1.46,2.27-1.79,3.54c-0.06,0.39-0.12,0.77-0.19,1.16
	c-4.77,0-6.64,7.23-2.51,10.18c-0.16,0.61-0.26,1.28-0.26,2.01c-0.02,5.71,6.24,8.05,6.85,13.63c0.39,3.55,3.2,6.26,6.96,5.3
	c2.81-0.71,6.28-1.18,8.16-3.62c1.03-1.33,0.74-1.33,2.03-1.89c1.56-0.67,3.29-0.88,4.89-1.65c2.27-1.1,3.01-3.95,2.53-6.21
	C747.56,390.74,747.09,389.24,746.44,387.8z"/>
<path class="st4" d="M536.38,246.17c-4.05-8.59-11.73-17.67-22.33-16.22c-5.31,0.73-8.13,4.51-11.18,8.55
	c-3.62,4.8-6.88,9.73-11.39,13.77c-1.88,1.69-2.1,3.75-1.37,5.51c-1.54,3-0.91,7.41,3.09,8.15c6.15,1.13,12.37,1.8,18.62,1.65
	c2.78-0.07,6.09,0.05,8.72-0.98c2.66-1.04,2.81-2.81,4.47-4.66c0.23-0.25,0.34-0.42,0.39-0.53c0.11,0.04,0.32,0.05,0.7,0.02
	c1.2-0.11,2.49,0.23,3.71,0.19c2.33-0.08,4.87-0.75,6.64-2.33C540.73,255.5,538.37,250.39,536.38,246.17z M506.48,256.01
	c0.06,0.26,0.14,0.52,0.25,0.77c-0.32-0.02-0.63-0.05-0.95-0.07C506.02,256.47,506.25,256.24,506.48,256.01z"/>
<path class="st4" d="M596.28,263.97c-1.77-2.07-3.59-4.35-5.74-6.05c-0.24-0.27-0.43-0.48-0.6-0.66c-0.02-0.22-0.05-0.46-0.09-0.75
	c0.05-1.28-0.23-2.63-0.42-3.89c-0.72-4.79-2-9.07-6.4-11.55c-4.82-2.72-9.57-3.9-14.96-2.16c-5.81,1.88-11.01,5.23-15.82,8.91
	c-1.62,1.24-2.29,2.92-2.31,4.59c-1.43,1.73-1.57,4.23-0.56,6.32c4.09,8.41,11.4,11.58,20.13,13.08c4.95,0.85,9.93,1.61,14.94,1.97
	c3.82,0.28,8.98,1.19,11.83-2.02C598.38,269.39,598.31,266.34,596.28,263.97z"/>
<path class="st4" d="M588.72,291.45c-1.47-3.54-3.39-8.4-5.94-11.25c-3.06-3.41-8.13-3.77-12.45-4.15
	c-5.31-0.47-10.59,0.05-15.79,1.1c-1.77,0.36-3.12,1.82-3.71,3.52c-2.66,1.66-4.25,5.67-1.64,8.86c5.89,7.2,11.6,16.61,20.13,20.95
	c3.44,1.75,8.84,3.58,12.65,1.97c3.63-1.53,4.67-6.55,6.64-9.58C591.01,299.17,590.36,295.39,588.72,291.45z"/>
<path class="st4" d="M261.74,125.72c-0.19-2.33-0.83-4.18-1.74-6.31c-0.79-1.86-0.61-3.87-1.38-5.75c-1.14-2.82-3.59-4.62-6.77-3.84
	c-4.83,1.18-9.66,2.39-14.48,3.64c-5.42,1.4-5.04,9.02,0,10.61c2.93,0.92,4.69,4.36,6.47,6.63c2.25,2.87,4.76,5.01,8.27,6.17
	c3.62,1.19,6.13-1.32,6.64-4.25c0.41-0.2,0.8-0.46,1.17-0.82C261.5,130.21,261.91,127.85,261.74,125.72z"/>
<path class="st4" d="M81.94,319.83c-3.86,0-3.87,6,0,6C85.8,325.83,85.81,319.83,81.94,319.83z"/>
<path class="st4" d="M105.43,308.35c-5.15,0-5.16,8,0,8C110.58,316.35,110.59,308.35,105.43,308.35z"/>
<path class="st4" d="M132.38,305.03c-7.72,0-7.73,12,0,12C140.1,317.03,140.11,305.03,132.38,305.03z"/>
<path class="st4" d="M168.58,270.32c-5.15,0-5.16,8,0,8C173.73,278.32,173.74,270.32,168.58,270.32z"/>
<path class="st4" d="M215.16,322.77c-3.86,0-3.87,6,0,6C219.02,328.77,219.03,322.77,215.16,322.77z"/>
<path class="st4" d="M233.87,323.36c-1.93,0-1.93,3,0,3C235.8,326.36,235.81,323.36,233.87,323.36z"/>
<path class="st4" d="M195.13,371.4c-12.87,0-12.89,20,0,20C207.99,391.4,208.02,371.4,195.13,371.4z"/>
<path class="st4" d="M149.87,244.07c-7.08,0-7.09,11,0,11C156.95,255.07,156.96,244.07,149.87,244.07z"/>
<path class="st4" d="M155.84,180.76c-5.15,0-5.16,8,0,8C160.99,188.76,160.99,180.76,155.84,180.76z"/>
<path class="st4" d="M185.67,162.17c-7.08,0-7.09,11,0,11C192.75,173.17,192.76,162.17,185.67,162.17z"/>
<path class="st4" d="M208.18,228.78c-9.65,0-9.67,15,0,15C217.83,243.78,217.84,228.78,208.18,228.78z"/>
<path class="st4" d="M226.89,249.83c-3.86,0-3.87,6,0,6C230.75,255.83,230.76,249.83,226.89,249.83z"/>
<path class="st4" d="M255.09,216.38c-2.57,0-2.58,4,0,4C257.67,220.38,257.67,216.38,255.09,216.38z"/>
<path class="st4" d="M106.75,133.57c-5.15,0-5.16,8,0,8C111.9,141.57,111.91,133.57,106.75,133.57z"/>
<path class="st4" d="M84.52,132.9c-3.22,0-3.22,5,0,5C87.73,137.9,87.74,132.9,84.52,132.9z"/>
<path class="st4" d="M74.48,106.05c-3.22,0-3.22,5,0,5C77.7,111.05,77.7,106.05,74.48,106.05z"/>
<path class="st4" d="M100.79,106.41c-4.5,0-4.51,7,0,7C105.29,113.41,105.3,106.41,100.79,106.41z"/>
<path class="st4" d="M81.26,58.51c-1.93,0-1.93,3,0,3C83.19,61.51,83.2,58.51,81.26,58.51z"/>
<path class="st4" d="M196.52,73.16c-1.93,0-1.93,3,0,3C198.45,76.16,198.45,73.16,196.52,73.16z"/>
<path class="st4" d="M200.04,111.83c-4.5,0-4.51,7,0,7C204.55,118.83,204.55,111.83,200.04,111.83z"/>
<path class="st4" d="M239.36,163.61c-8.36,0-8.38,13,0,13C247.73,176.61,247.74,163.61,239.36,163.61z"/>
<path class="st4" d="M270.55,101.61c-5.79,0-5.8,9,0,9C276.34,110.61,276.35,101.61,270.55,101.61z"/>
<path class="st4" d="M293.33,95.29c-4.5,0-4.51,7,0,7C297.83,102.29,297.84,95.29,293.33,95.29z"/>
<path class="st4" d="M279.77,78.65c-7.08,0-7.09,11,0,11C286.85,89.65,286.86,78.65,279.77,78.65z"/>
<path class="st4" d="M184.85,17.99c-8.36,0-8.38,13,0,13C193.22,30.99,193.23,17.99,184.85,17.99z"/>
<path class="st4" d="M220.92,33.07c-10.94,0-10.96,17,0,17C231.86,50.07,231.88,33.07,220.92,33.07z"/>
<path class="st4" d="M249.4,25.83c-3.86,0-3.87,6,0,6C253.26,31.83,253.26,25.83,249.4,25.83z"/>
<path class="st4" d="M310.41,266.85c-7.08,0-7.09,11,0,11C317.49,277.85,317.5,266.85,310.41,266.85z"/>
<path class="st4" d="M302.28,290.34c-9.65,0-9.67,15,0,15C311.93,305.34,311.95,290.34,302.28,290.34z"/>
<path class="st4" d="M300.38,320.69c-5.15,0-5.16,8,0,8C305.53,328.69,305.54,320.69,300.38,320.69z"/>
<path class="st4" d="M284.38,378.18c-5.15,0-5.16,8,0,8C289.53,386.18,289.54,378.18,284.38,378.18z"/>
<path class="st4" d="M244.24,382.08c-2.57,0-2.58,4,0,4C246.82,386.08,246.82,382.08,244.24,382.08z"/>
<path class="st4" d="M330.21,475.22c-4.5,0-4.51,7,0,7C334.71,482.22,334.72,475.22,330.21,475.22z"/>
<path class="st4" d="M358.33,455.95c-0.12-0.96-0.31-1.76-1.03-2.47c-0.61-0.61-1.6-1.06-2.47-1.03c-1.7,0.08-3.75,1.55-3.5,3.5
	c0.16,1.26,0.23,2.52,0.2,3.79c-0.04,1.83,1.64,3.58,3.5,3.5c1.93-0.09,3.46-1.54,3.5-3.5
	C358.56,458.47,358.49,457.21,358.33,455.95z"/>
<path class="st4" d="M355.16,432.77c-6.43,0-6.45,10,0,10C361.59,442.77,361.61,432.77,355.16,432.77z"/>
<path class="st4" d="M355.43,413.06c-7.72,0-7.73,12,0,12C363.15,425.06,363.17,413.06,355.43,413.06z"/>
<path class="st4" d="M381.46,445.71c-5.15,0-5.16,8,0,8C386.61,453.71,386.62,445.71,381.46,445.71z"/>
<path class="st4" d="M405.06,487.01c-6.43,0-6.45,10,0,10C411.49,497.01,411.5,487.01,405.06,487.01z"/>
<path class="st4" d="M499.7,488.22c-8.36,0-8.38,13,0,13C508.07,501.22,508.08,488.22,499.7,488.22z"/>
<path class="st4" d="M533.87,423.7c-4.5,0-4.51,7,0,7C538.38,430.7,538.38,423.7,533.87,423.7z"/>
<path class="st4" d="M601.67,457.66c-9.65,0-9.67,15,0,15C611.32,472.66,611.34,457.66,601.67,457.66z"/>
<path class="st4" d="M451.97,291.24c-10.94,0-10.96,17,0,17C462.91,308.24,462.93,291.24,451.97,291.24z"/>
<path class="st4" d="M421.6,301.36c-12.23,0-12.25,19,0,19C433.83,320.36,433.85,301.36,421.6,301.36z"/>
<path class="st4" d="M439.81,335.92c-0.17-1.25-0.83-2.42-1.8-3.23c-0.33-0.84-0.88-1.6-1.6-2.16c-1.86-1.43-4.92-1.49-6.57,0.39
	c-0.41,0.47-0.83,0.94-1.24,1.41c-0.67,0.76-1.13,1.62-1.34,2.54c-0.07,0.11-0.13,0.21-0.2,0.32c-1.36,2.24-0.56,5.6,1.79,6.84
	c1.85,0.98,4,0.8,5.57-0.38c1.04-0.01,1.97-0.27,2.99-0.76c0.7-0.33,1.41-1.14,1.79-1.79C439.79,338.13,439.96,337.02,439.81,335.92
	z"/>
<path class="st4" d="M411.8,325.25c-0.95-2.1-3.72-3.37-5.88-2.67c-0.9,0.29-1.63,0.77-2.21,1.37c-0.34,0.06-0.67,0.15-0.97,0.28
	c-2.27,0.96-3.55,3.47-2.89,5.9c0.01,0.02,0.02,0.05,0.02,0.07c-0.69,1.76-0.52,3.82,1.09,5.18c0.14,0.12,0.29,0.24,0.43,0.35
	c0.39,0.8,1,1.52,1.79,2.1c0.05,0.05,0.15,0.14,0.31,0.29c0.23,0.24,0.45,0.5,0.64,0.77c1.52,1.96,4.81,1.75,6.57,0.39
	c1.8-1.39,2.63-4.2,1.38-6.27C414.25,331.06,414.41,326.87,411.8,325.25z"/>
<path class="st4" d="M451.7,334.29c-5.79,0-5.8,9,0,9C457.49,343.29,457.5,334.29,451.7,334.29z"/>
<path class="st4" d="M392.31,346.41c-4.5,0-4.51,7,0,7C396.82,353.41,396.82,346.41,392.31,346.41z"/>
<path class="st4" d="M383.01,296.98c-0.22-2.88-4.06-4.76-6-2.54c-0.1-2.41-3.03-4.11-5.17-2.99c-0.15-0.18-0.32-0.34-0.51-0.49
	c-1.26-0.97-3.5-1.09-4.6,0.27l-1.58,1.96c-0.58,0.72-0.95,1.62-0.99,2.51c-0.2,0.37-0.4,0.74-0.6,1.11
	c-1.23,2.29,0.29,5.3,3.02,5.27c1.73-0.02,3.49-0.6,4.82-1.72c0.28,0.27,0.6,0.51,0.94,0.74c-1.47,0.65-2.51,2.17-1.92,4.02
	c0.21,0.66,0.42,1.31,0.63,1.97c0.44,1.37,1.61,2.32,2.92,2.52c1.12,0.72,2.45,1.01,3.78,0.63c0.62-0.18,1.12-0.47,1.56-0.83
	c1.49,0.13,2.93-0.58,3.22-2.48C383.05,303.6,383.27,300.34,383.01,296.98z"/>
<path class="st4" d="M399.06,290.56c-2.42-1.56-6.18-0.58-7.53,1.97c-0.37,0.7-0.59,1.43-0.67,2.16c-0.77,1.01-1.5,2.05-2.18,3.12
	c-1.56,2.42-0.58,6.18,1.97,7.53c2.53,1.34,5.4,0.7,7.13-1.46c2.52-0.75,4.5-3.3,4.83-5.82
	C403.04,294.97,401.67,292.24,399.06,290.56z"/>
<path class="st4" d="M399.63,265.51c-3.22,0-3.22,5,0,5C402.85,270.51,402.86,265.51,399.63,265.51z"/>
<path class="st4" d="M432.35,402.11c-0.58-0.53-1.23-0.86-2.01-0.96c-1.75-0.24-3.31,0.83-3.84,2.51c-0.09,0.27-0.18,0.53-0.27,0.8
	c-0.14,0.06-0.28,0.12-0.41,0.2c-1.6,1.03-2.23,3.09-1.26,4.79c0.02,0.03,0.04,0.05,0.06,0.08c0.03,0.05,0.04,0.11,0.07,0.15
	c0.06,0.09,0.13,0.17,0.2,0.26c0.04,0.05,0.08,0.1,0.12,0.15c0.06,0.06,0.11,0.13,0.17,0.19c0.36,0.4,0.77,0.75,1.24,1.04
	c1.04,0.64,2.3,0.59,3.34,0.07c0.7-0.08,1.37-0.38,1.91-0.97c0.7-0.76,1.08-1.9,0.98-2.97c0.27-0.59,0.44-1.21,0.56-1.85
	c0.01-0.03,0.02-0.06,0.03-0.1c0,0-0.01,0-0.01,0c0.06-0.3,0.1-0.61,0.14-0.93C433.47,403.79,432.92,402.63,432.35,402.11z"/>
<path class="st4" d="M433.21,416.26c-0.31-0.04-0.62-0.07-0.93-0.09c0-0.01,0-0.02,0-0.03c-1,0.04-2.09-0.63-3.19-0.67
	c-0.68-0.03-1.34,0.07-1.97,0.27c-1.51-0.45-3.35-0.03-4.22,1.45c-0.71,1.22-1.26,2.54-1.62,3.91c-0.15,0.56-0.12,1.17,0.03,1.76
	c-0.21,0.39-0.42,0.76-0.64,1.12c-0.97,1.62-0.36,3.84,1.26,4.79c1.77,1.04,3.67,0.27,4.79-1.26c0.58-0.8,1.15-1.61,1.71-2.43
	c1.08-0.32,1.98-1.04,2.39-2.06c0.48,0.08,0.97,0.13,1.46,0.11c1.73-0.07,3.23-1.28,3.44-3.03
	C435.9,418.57,434.95,416.5,433.21,416.26z"/>
<path class="st4" d="M271.22,161.45c-2.81-0.64-5.2,0.85-6.15,3.49c-0.73,2.04-1.08,4.21-1.18,6.38c-0.12,2.48,1.99,4.6,4.34,4.91
	c2.44,0.33,4.81-1.17,5.49-3.58c0.19-0.67,0.38-1.35,0.56-2.02c0.18-0.65,0.21-1.34,0.11-2.01c0.1-0.34,0.21-0.68,0.33-1.02
	C275.6,165.14,273.71,162.02,271.22,161.45z"/>
<path class="st4" d="M297.94,135.01c-6.43,0-6.45,10,0,10C304.37,145.01,304.38,135.01,297.94,135.01z"/>
<path class="st4" d="M384.18,109.65c-8.36,0-8.38,13,0,13C392.54,122.65,392.56,109.65,384.18,109.65z"/>
<path class="st4" d="M402.08,140.62c-5.15,0-5.16,8,0,8C407.22,148.62,407.23,140.62,402.08,140.62z"/>
<path class="st4" d="M422.9,172.31c-0.24-0.85-0.67-1.58-1.29-2.21c-0.34-0.26-0.67-0.52-1.01-0.78c-0.78-0.45-1.62-0.68-2.52-0.68
	h-0.81c-0.69-0.03-1.33,0.12-1.93,0.43c-0.62,0.2-1.16,0.55-1.61,1.03c-0.49,0.45-0.83,0.99-1.03,1.61
	c-0.31,0.6-0.46,1.24-0.43,1.93c0.06,0.44,0.12,0.89,0.18,1.33c0.24,0.85,0.67,1.58,1.29,2.21c0.34,0.26,0.67,0.52,1.01,0.78
	c0.78,0.45,1.62,0.68,2.52,0.68h0.81c0.69,0.03,1.33-0.12,1.93-0.43c0.62-0.2,1.16-0.55,1.61-1.03c0.49-0.45,0.83-0.99,1.03-1.61
	c0.31-0.6,0.46-1.24,0.43-1.93C423.02,173.2,422.96,172.75,422.9,172.31z"/>
<path class="st4" d="M422.48,185.18c-1.3-2.53-4.35-3.96-7.12-3.13c-1.22,0.37-2.34,1.19-2.99,2.3c-0.63,1.07-0.89,2.65-0.5,3.85
	c0.18,0.55,0.45,1.07,0.79,1.53c-0.15,1.88,0.65,3.83,2.4,4.75c2.35,1.24,5.49,0.65,6.84-1.79
	C423.21,190.31,423.78,187.7,422.48,185.18z"/>
<path class="st4" d="M416.86,206.2c-0.57-1.58-1.41-2.95-2.88-3.86c-1.94-1.2-4.42-1.01-6.2,0.37c-1.91,1.47-2.28,4.02-2.89,6.22
	c-0.7,2.52,0.86,5.55,3.49,6.15c2.55,0.58,5.18-0.71,6.04-3.22C416.32,210.74,417.66,208.44,416.86,206.2z"/>
<path class="st4" d="M458.75,212.88c-7.08,0-7.09,11,0,11C465.83,223.88,465.84,212.88,458.75,212.88z"/>
<path class="st4" d="M472.85,124.56c-8.36,0-8.38,13,0,13C481.22,137.56,481.23,124.56,472.85,124.56z"/>
<path class="st4" d="M505.67,204.94c-5.79,0-5.8,9,0,9C511.46,213.94,511.47,204.94,505.67,204.94z"/>
<path class="st4" d="M486.14,225.92c-3.22,0-3.22,5,0,5C489.36,230.92,489.37,225.92,486.14,225.92z"/>
<path class="st4" d="M547.66,264.56c-2.43-0.36-4.86-0.72-7.29-1.08c-2.24-0.33-4.48,0.21-5.95,1.71c-2.85,0.63-5.18,2.63-5.18,5.85
	c0,2.93,2.76,6.4,6,6c3.6-0.45,7.2-0.68,10.83-0.7c2.96-0.02,5.54-2.27,5.89-5.2C552.27,268.48,550.65,265,547.66,264.56z"/>
<path class="st4" d="M544.45,238.02c-5.79,0-5.8,9,0,9C550.24,247.02,550.25,238.02,544.45,238.02z"/>
<path class="st4" d="M565.6,213.76c-3.86,0-3.87,6,0,6C569.46,219.76,569.47,213.76,565.6,213.76z"/>
<path class="st4" d="M608.72,179.99c-5.79,0-5.8,9,0,9C614.51,188.99,614.52,179.99,608.72,179.99z"/>
<path class="st4" d="M619.84,212.72c-12.87,0-12.89,20,0,20C632.71,232.72,632.73,212.72,619.84,212.72z"/>
<path class="st4" d="M632.85,257.19c-4.5,0-4.51,7,0,7C637.36,264.19,637.37,257.19,632.85,257.19z"/>
<path class="st4" d="M670.82,283.14c-3.22,0-3.22,5,0,5C674.04,288.14,674.04,283.14,670.82,283.14z"/>
<path class="st4" d="M723.16,318.52c-5.15,0-5.16,8,0,8C728.31,326.52,728.32,318.52,723.16,318.52z"/>
<path class="st4" d="M736.45,351.92c-5.79,0-5.8,9,0,9C742.24,360.92,742.25,351.92,736.45,351.92z"/>
<path class="st4" d="M687.91,370.66c-10.3,0-10.31,16,0,16C698.2,386.66,698.22,370.66,687.91,370.66z"/>
<path class="st4" d="M628.24,283.12c-7.08,0-7.09,11,0,11C635.32,294.12,635.33,283.12,628.24,283.12z"/>
<path class="st4" d="M723.7,414.75c-4.5,0-4.51,7,0,7C728.21,421.75,728.21,414.75,723.7,414.75z"/>
</svg>
