<svg width="86" height="84" viewBox="0 0 86 84" fill="none" xmlns="http://www.w3.org/2000/svg">
<path d="M38.4492 0H47.5502L43.8906 44.1254H41.941L38.4492 0Z" fill="#000333"/>
<path d="M6.48828 19.8134L12.1694 12.6807L44.3225 43.0529L43.1 44.5819L6.48828 19.8134Z" fill="#000333"/>
<path d="M2.02156 57.1897L0 48.3037L43.7551 42.0596L44.1866 43.9648L2.02156 57.1897Z" fill="#000333"/>
<path d="M28.4139 84.0001L20.2158 80.0454L42.6207 41.876L44.3706 42.7245L28.4139 84.0001Z" fill="#000333"/>
<path d="M65.7844 80.045L57.5863 83.9996L41.7734 42.6521L43.5313 41.8115L65.7844 80.045Z" fill="#000333"/>
<path d="M86.0001 48.3047L83.9706 57.1906L41.8535 43.8057L42.285 41.9004L86.0001 48.3047Z" fill="#000333"/>
<path d="M73.831 12.6807L79.5042 19.8134L42.7966 44.4538L41.582 42.9328L73.831 12.6807Z" fill="#000333"/>
</svg>
