<svg width="44" height="35" viewBox="0 0 44 35" fill="none" xmlns="http://www.w3.org/2000/svg">
<path d="M10 11.2953V6.2752C10 5.43851 10.5857 3.76514 12.9284 3.76514C15.2711 3.76514 26.176 3.76514 31.3356 3.76514" stroke="#FCFDEB"/>
<path d="M33.3915 2.92647C33.9985 3.32077 33.9985 4.20943 33.3915 4.60373L31.2072 6.02246C30.5419 6.45456 29.6625 5.97712 29.6625 5.18383L29.6625 2.34637C29.6625 1.55309 30.5419 1.07564 31.2072 1.50774L33.3915 2.92647Z" fill="#FCFDEB"/>
<path d="M35 8.36677V13.3869C35 14.2236 34.4143 15.897 32.0716 15.897C29.7289 15.897 18.824 15.897 13.6644 15.897" stroke="#FCFDEB"/>
<path d="M11.6085 16.7356C11.0015 16.3413 11.0015 15.4527 11.6085 15.0584L13.7928 13.6397C14.4581 13.2075 15.3375 13.685 15.3375 14.4783L15.3375 17.3157C15.3375 18.109 14.4581 18.5865 13.7928 18.1544L11.6085 16.7356Z" fill="#FCFDEB"/>
<path d="M2.15 30.1C1.63667 30.1 1.23333 29.97 0.94 29.71C0.646667 29.4433 0.5 29.08 0.5 28.62C0.5 28.1067 0.686667 27.7233 1.06 27.47C1.44 27.2167 2.01333 27.0767 2.78 27.05L3.61 27.02V26.27C3.61 25.8967 3.59 25.59 3.55 25.35C3.51 25.11 3.42333 24.9333 3.29 24.82C3.15667 24.7 2.95333 24.64 2.68 24.64C2.29333 24.64 2.04333 24.76 1.93 25C1.82333 25.24 1.77 25.6167 1.77 26.13C1.49 26.13 1.27667 26.0833 1.13 25.99C0.99 25.8967 0.92 25.7433 0.92 25.53C0.92 25.29 1 25.1 1.16 24.96C1.32667 24.8133 1.54333 24.7067 1.81 24.64C2.08333 24.5733 2.38667 24.54 2.72 24.54C3.33333 24.54 3.79 24.67 4.09 24.93C4.39667 25.19 4.55 25.6367 4.55 26.27V29.26C4.55 29.5 4.59667 29.6667 4.69 29.76C4.78333 29.8533 4.94333 29.9 5.17 29.9H5.2V30H3.69V28.95H3.67C3.56333 29.35 3.37333 29.6433 3.1 29.83C2.83333 30.01 2.51667 30.1 2.15 30.1ZM2.35 29.96C2.59667 29.96 2.81333 29.8967 3 29.77C3.19333 29.6433 3.34333 29.4733 3.45 29.26C3.55667 29.0467 3.61 28.8167 3.61 28.57V27.13L2.97 27.16C2.40333 27.1867 2.01 27.3167 1.79 27.55C1.57667 27.7833 1.47 28.1767 1.47 28.73C1.47 29.55 1.76333 29.96 2.35 29.96ZM8.46477 30.1C7.87143 30.1 7.43143 29.9467 7.14477 29.64C6.8581 29.3267 6.71477 28.8267 6.71477 28.14V25.64C6.71477 25.3 6.65477 25.0667 6.53477 24.94C6.41477 24.8067 6.20143 24.74 5.89477 24.74H5.86477V24.64H7.65477V28.19C7.65477 28.8233 7.72477 29.2767 7.86477 29.55C8.00477 29.8233 8.2581 29.96 8.62477 29.96C9.07143 29.96 9.40477 29.7867 9.62477 29.44C9.85143 29.0867 9.96477 28.5867 9.96477 27.94V25.64C9.96477 25.3 9.90477 25.0667 9.78477 24.94C9.67143 24.8067 9.4581 24.74 9.14477 24.74H9.11477V24.64H10.9048V29.01C10.9048 29.35 10.9614 29.5833 11.0748 29.71C11.1948 29.8367 11.4114 29.9 11.7248 29.9H11.7548V30H10.0348V28.63H10.0148C9.96143 28.97 9.87477 29.24 9.75477 29.44C9.64143 29.6333 9.5081 29.7767 9.35477 29.87C9.2081 29.9633 9.05477 30.0233 8.89477 30.05C8.74143 30.0833 8.5981 30.1 8.46477 30.1ZM14.3824 30.1C13.8758 30.1 13.5058 29.9867 13.2724 29.76C13.0458 29.5267 12.9324 29.1233 12.9324 28.55V24.74H12.1724V24.64C12.6458 24.64 13.0058 24.55 13.2524 24.37C13.5124 24.19 13.6858 23.87 13.7724 23.41H13.8724V24.64H15.2724V24.74H13.8724V28.92C13.8724 29.6133 14.1358 29.96 14.6624 29.96C14.8358 29.96 15.0391 29.92 15.2724 29.84V29.94C15.1858 29.98 15.0558 30.0167 14.8824 30.05C14.7091 30.0833 14.5424 30.1 14.3824 30.1ZM18.368 30.1C17.648 30.1 17.0814 29.87 16.668 29.41C16.2547 28.95 16.048 28.25 16.048 27.31C16.048 26.3767 16.2447 25.6833 16.638 25.23C17.038 24.77 17.6247 24.54 18.398 24.54C19.118 24.54 19.6847 24.77 20.098 25.23C20.5114 25.6833 20.718 26.3767 20.718 27.31C20.718 28.25 20.518 28.95 20.118 29.41C19.718 29.87 19.1347 30.1 18.368 30.1ZM18.388 30C18.8747 30 19.2214 29.7933 19.428 29.38C19.6414 28.9667 19.748 28.2767 19.748 27.31C19.748 26.35 19.6414 25.6667 19.428 25.26C19.2214 24.8467 18.8714 24.64 18.378 24.64C17.8847 24.64 17.5347 24.8467 17.328 25.26C17.1214 25.6667 17.018 26.35 17.018 27.31C17.018 28.2767 17.1214 28.9667 17.328 29.38C17.5414 29.7933 17.8947 30 18.388 30ZM23.6956 32.4V32.3H23.7756C24.069 32.3 24.279 32.24 24.4056 32.12C24.5323 32 24.5956 31.8033 24.5956 31.53V25.52C24.5956 25.24 24.5323 25.04 24.4056 24.92C24.279 24.8 24.069 24.74 23.7756 24.74H23.6456V24.64H25.5156V26.03H25.5356C25.629 25.5233 25.8023 25.15 26.0556 24.91C26.309 24.6633 26.6623 24.54 27.1156 24.54C28.4423 24.54 29.1056 25.4633 29.1056 27.31C29.1056 28.2233 28.9323 28.9167 28.5856 29.39C28.2456 29.8633 27.749 30.1 27.0956 30.1C26.6623 30.1 26.3156 29.9767 26.0556 29.73C25.8023 29.4833 25.6323 29.1033 25.5456 28.59H25.5256C25.5323 28.7567 25.5356 28.9233 25.5356 29.09C25.5356 29.2567 25.5356 29.4233 25.5356 29.59V31.48C25.5356 31.7733 25.599 31.9833 25.7256 32.11C25.8523 32.2367 26.0623 32.3 26.3556 32.3H26.3856V32.4H23.6956ZM26.9256 29.95C27.359 29.95 27.669 29.7467 27.8556 29.34C28.0423 28.9333 28.1356 28.2533 28.1356 27.3C28.1356 26.36 28.0423 25.69 27.8556 25.29C27.669 24.89 27.3556 24.69 26.9156 24.69C26.429 24.69 26.0756 24.91 25.8556 25.35C25.6423 25.79 25.5356 26.4433 25.5356 27.31C25.5356 28.2033 25.649 28.8667 25.8756 29.3C26.1023 29.7333 26.4523 29.95 26.9256 29.95ZM29.7882 30V29.9H29.9182C30.2115 29.9 30.4215 29.84 30.5482 29.72C30.6749 29.6 30.7382 29.4033 30.7382 29.13V23.28C30.7382 23 30.6749 22.8 30.5482 22.68C30.4215 22.56 30.2115 22.5 29.9182 22.5H29.7882V22.4H31.6782V29.08C31.6782 29.3733 31.7415 29.5833 31.8682 29.71C31.9949 29.8367 32.2049 29.9 32.4982 29.9H32.6282V30H29.7882ZM34.9039 30.1C34.3906 30.1 33.9872 29.97 33.6939 29.71C33.4006 29.4433 33.2539 29.08 33.2539 28.62C33.2539 28.1067 33.4406 27.7233 33.8139 27.47C34.1939 27.2167 34.7672 27.0767 35.5339 27.05L36.3639 27.02V26.27C36.3639 25.8967 36.3439 25.59 36.3039 25.35C36.2639 25.11 36.1772 24.9333 36.0439 24.82C35.9106 24.7 35.7072 24.64 35.4339 24.64C35.0472 24.64 34.7972 24.76 34.6839 25C34.5772 25.24 34.5239 25.6167 34.5239 26.13C34.2439 26.13 34.0306 26.0833 33.8839 25.99C33.7439 25.8967 33.6739 25.7433 33.6739 25.53C33.6739 25.29 33.7539 25.1 33.9139 24.96C34.0806 24.8133 34.2972 24.7067 34.5639 24.64C34.8372 24.5733 35.1406 24.54 35.4739 24.54C36.0872 24.54 36.5439 24.67 36.8439 24.93C37.1506 25.19 37.3039 25.6367 37.3039 26.27V29.26C37.3039 29.5 37.3506 29.6667 37.4439 29.76C37.5372 29.8533 37.6972 29.9 37.9239 29.9H37.9539V30H36.4439V28.95H36.4239C36.3172 29.35 36.1272 29.6433 35.8539 29.83C35.5872 30.01 35.2706 30.1 34.9039 30.1ZM35.1039 29.96C35.3506 29.96 35.5672 29.8967 35.7539 29.77C35.9472 29.6433 36.0972 29.4733 36.2039 29.26C36.3106 29.0467 36.3639 28.8167 36.3639 28.57V27.13L35.7239 27.16C35.1572 27.1867 34.7639 27.3167 34.5439 27.55C34.3306 27.7833 34.2239 28.1767 34.2239 28.73C34.2239 29.55 34.5172 29.96 35.1039 29.96ZM38.5734 32.4V32.3C39.04 32.3 39.4167 32.2633 39.7034 32.19C39.9967 32.1233 40.2267 32.0133 40.3934 31.86C40.5667 31.7133 40.71 31.52 40.8234 31.28C40.9434 31.0467 41.0667 30.7667 41.1934 30.44L39.0034 25.29C38.9167 25.0767 38.83 24.9333 38.7434 24.86C38.6634 24.78 38.56 24.74 38.4334 24.74H38.2334V24.64H40.6334V24.74H40.6034C40.4167 24.74 40.2667 24.77 40.1534 24.83C40.0467 24.8833 39.9934 24.9833 39.9934 25.13C39.9934 25.2433 40.0334 25.3967 40.1134 25.59L40.9734 27.68C41.0734 27.9267 41.18 28.2 41.2934 28.5C41.4067 28.8 41.5 29.0633 41.5734 29.29C41.66 29.03 41.7434 28.7833 41.8234 28.55C41.9034 28.3167 41.97 28.1133 42.0234 27.94L42.7534 25.65C42.8134 25.47 42.8434 25.32 42.8434 25.2C42.8434 24.8933 42.6234 24.74 42.1834 24.74H41.7634V24.64H43.8434V24.74H43.7634C43.5167 24.74 43.3367 24.79 43.2234 24.89C43.1167 24.99 43.01 25.2 42.9034 25.52L41.4434 30.04C41.29 30.52 41.14 30.9133 40.9934 31.22C40.8467 31.5267 40.6767 31.7667 40.4834 31.94C40.29 32.1133 40.0467 32.2333 39.7534 32.3C39.4667 32.3667 39.1034 32.4 38.6634 32.4H38.5734Z" fill="#FCFDEB"/>
</svg>
