<svg width="186" height="79" viewBox="0 0 186 79" fill="none" xmlns="http://www.w3.org/2000/svg">
<path d="M185.5 39.5C185.5 44.7831 182.981 49.8591 178.337 54.5224C173.691 59.1877 166.944 63.4121 158.565 66.9705C141.811 74.0866 118.631 78.5 93 78.5C67.3693 78.5 44.1888 74.0866 27.4345 66.9705C19.0565 63.4121 12.3086 59.1877 7.66269 54.5224C3.01877 49.8591 0.5 44.7831 0.5 39.5C0.5 34.2169 3.01877 29.1409 7.66269 24.4776C12.3086 19.8123 19.0565 15.5879 27.4345 12.0295C44.1888 4.91344 67.3693 0.5 93 0.5C118.631 0.5 141.811 4.91344 158.565 12.0295C166.944 15.5879 173.691 19.8123 178.337 24.4776C182.981 29.1409 185.5 34.2169 185.5 39.5Z" stroke="#333333"/>
</svg>
